<?xml version="1.0" encoding="UTF-8" standalone="no"?>
<!-- Created with Inkscape (http://www.inkscape.org/) -->

<svg
   width="198.4375mm"
   height="132.29166mm"
   viewBox="0 0 198.4375 132.29166"
   version="1.1"
   id="svg1"
   xml:space="preserve"
   xmlns:xlink="http://www.w3.org/1999/xlink"
   xmlns="http://www.w3.org/2000/svg"
   xmlns:svg="http://www.w3.org/2000/svg"><defs
     id="defs1"><linearGradient
       id="linearGradient1"><stop
         style="stop-color:#16423c;stop-opacity:1;"
         offset="0"
         id="stop1" /><stop
         style="stop-color:#ffffff;stop-opacity:0;"
         offset="1"
         id="stop2" /></linearGradient><path
       id="SVGID_1_"
       d="m 173.253,75.567 c -30.778,-7.039 -63.192,6.64 -85.47,30.81 -23.994,26.032 -15.987,56.787 -12.475,88.469 4.156,37.493 -16.054,64.198 -36.154,93.552 -21.73,31.735 -33.601,63.986 -24.416,102.627 6.161,25.921 28.829,56.479 59.316,56.479 55.306,0 378.782,1.3 464.731,1.3 36.65,0 77.01,-1.781 109.806,-19.978 15.701,-8.712 28.742,-21.678 35.717,-38.397 7.311,-17.523 6.914,-37.872 9.062,-56.516 4.028,-34.97 17.949,-65.825 26.872,-99.518 8.238,-31.105 9.297,-64.284 -13.275,-89.804 -21.152,-23.914 -55.398,-30.544 -84.874,-24.152 -20.817,4.514 -37.748,14.79 -57.518,22.427 -30.854,11.918 -62.368,16.579 -92.873,1.846 -32.507,-15.7 -48.704,-44.304 -78.481,-63.068 C 362.464,62.262 316.876,54.066 282.174,60.893 263.43,64.581 249.186,72.429 231.952,79.807 212.6,88.095 193.384,80.172 173.253,75.567 Z" /><linearGradient
       xlink:href="#linearGradient1"
       id="linearGradient2"
       x1="855.47101"
       y1="481.03961"
       x2="33.985352"
       y2="41.856205"
       gradientUnits="userSpaceOnUse" /></defs><g
     id="layer1"
     transform="translate(1.2123326,-78.741704)"><g
       id="g18"
       transform="matrix(0.26458333,0,0,0.26458333,-1.2123438,78.741695)"><g
         id="g2"><g
           id="BACKGROUND"
           style="display:inline">
	<rect
   id="background_1_"
   style="fill:url(#linearGradient2)"
   width="750"
   height="500"
   x="0"
   y="0" />
</g><g
           id="OBJECTS"
           transform="translate(12.730472,-2.1781118)">
	<g
   id="illustration">
		<g
   id="background">
			<path
   id="back"
   style="fill:#16423c;fill-opacity:1"
   d="m 173.253,75.567 c -30.778,-7.039 -63.192,6.64 -85.47,30.81 -23.994,26.032 -15.987,56.787 -12.475,88.469 4.156,37.493 -16.054,64.198 -36.154,93.552 -21.73,31.735 -33.601,63.986 -24.416,102.627 6.161,25.921 28.829,56.479 59.316,56.479 55.306,0 378.782,1.3 464.731,1.3 36.65,0 77.01,-1.781 109.806,-19.978 15.701,-8.712 28.742,-21.678 35.717,-38.397 7.311,-17.523 6.914,-37.872 9.062,-56.516 4.028,-34.97 17.949,-65.825 26.872,-99.518 8.238,-31.105 9.297,-64.284 -13.275,-89.804 -21.152,-23.914 -55.398,-30.544 -84.874,-24.152 -20.817,4.514 -37.748,14.79 -57.518,22.427 -30.854,11.918 -62.368,16.579 -92.873,1.846 -32.507,-15.7 -48.704,-44.304 -78.481,-63.068 C 362.464,62.262 316.876,54.066 282.174,60.893 263.43,64.581 249.186,72.429 231.952,79.807 212.6,88.095 193.384,80.172 173.253,75.567 Z" />
			<g
   id="dna_1_">
				<defs
   id="defs1-0" />
				<clipPath
   id="SVGID_00000115506242396337471160000014897253961979803809_">
					<use
   xlink:href="#SVGID_1_"
   style="overflow:visible"
   id="use1" />
				</clipPath>
				<g
   id="dna"
   style="opacity:0.2"
   clip-path="url(#SVGID_00000115506242396337471160000014897253961979803809_)">
					<path
   style="fill:#ffffff"
   d="m 72.461,223.9 c 1.212,1.366 2.435,2.743 3.68,4.119 v -8.239 c -1.245,1.377 -2.468,2.754 -3.68,4.12 z"
   id="path2" />
					<path
   style="fill:#ffffff"
   d="M 74.633,218.075 C 58.979,200.347 44.191,183.602 17.062,183.602 v 5.485 c 24.655,0 38,15.117 53.457,32.62 0.642,0.73 1.289,1.459 1.942,2.194 1.212,-1.366 2.435,-2.743 3.68,-4.119 -0.504,-0.566 -1.009,-1.137 -1.508,-1.707 z"
   id="path3" />
					<path
   style="fill:#ffffff"
   d="m 190.62,223.9 c 1.212,1.366 2.435,2.743 3.68,4.119 v -8.239 c -1.245,1.377 -2.468,2.754 -3.68,4.12 z"
   id="path4" />
					<path
   style="fill:#ffffff"
   d="m 194.3,219.784 v 8.235 0 c 1.245,-1.376 2.467,-2.752 3.679,-4.117 -1.212,-1.369 -2.433,-2.741 -3.679,-4.118 z"
   id="path5" />
					<path
   style="fill:#ffffff"
   d="m 312.46,219.783 c -1.244,1.371 -2.469,2.751 -3.684,4.122 -0.651,-0.739 -1.293,-1.468 -1.934,-2.197 -15.466,-17.507 -28.802,-32.623 -53.464,-32.623 -24.652,0 -38.008,15.116 -53.464,32.623 -0.641,0.729 -1.283,1.458 -1.934,2.197 -1.205,1.361 -2.43,2.741 -3.674,4.112 -0.506,0.574 -1.011,1.137 -1.516,1.711 -15.65,17.731 -30.436,34.47 -57.566,34.47 -27.13,0 -41.916,-16.739 -57.576,-34.47 -0.496,-0.574 -1.001,-1.137 -1.507,-1.711 v -8.234 c 1.915,2.119 3.781,4.229 5.619,6.309 15.456,17.507 28.803,32.623 53.464,32.623 24.652,0 37.998,-15.116 53.454,-32.623 1.847,-2.08 3.713,-4.199 5.628,-6.309 0.505,-0.564 1.001,-1.137 1.507,-1.711 15.65,-17.721 30.436,-34.47 57.566,-34.47 27.13,0 41.916,16.749 57.576,34.47 0.494,0.574 0.999,1.147 1.505,1.711 z"
   id="path6" />
					<path
   style="fill:#ffffff"
   d="m 194.304,219.783 c -1.244,1.371 -2.469,2.751 -3.684,4.122 -0.651,-0.739 -1.303,-1.468 -1.944,-2.197 -15.456,-17.507 -28.803,-32.623 -53.454,-32.623 -24.651,0 -38.008,15.116 -53.464,32.623 -0.642,0.729 -1.293,1.458 -1.934,2.197 -1.215,1.361 -2.44,2.741 -3.684,4.112 -0.505,0.574 -1.001,1.137 -1.507,1.711 -15.65,17.731 -30.445,34.47 -57.566,34.47 v -5.482 c 24.652,0 37.998,-15.116 53.454,-32.623 1.837,-2.08 3.704,-4.199 5.618,-6.309 0.505,-0.564 1.011,-1.137 1.507,-1.711 15.66,-17.721 30.445,-34.47 57.576,-34.47 27.131,0 41.916,16.749 57.566,34.47 0.505,0.573 1.01,1.146 1.516,1.71 z"
   id="path7" />
					<path
   style="fill:#ffffff"
   d="m 308.778,223.9 c 1.212,1.366 2.435,2.743 3.68,4.119 v -8.239 c -1.244,1.377 -2.468,2.754 -3.68,4.12 z"
   id="path8" />
					<path
   style="fill:#ffffff"
   d="m 430.625,219.783 c -1.244,1.371 -2.469,2.751 -3.684,4.122 -0.651,-0.739 -1.302,-1.468 -1.944,-2.197 -15.456,-17.507 -28.803,-32.623 -53.454,-32.623 -24.661,0 -38.008,15.116 -53.464,32.623 -0.642,0.729 -1.293,1.458 -1.934,2.197 -1.215,1.361 -2.44,2.741 -3.684,4.112 -0.505,0.574 -1.011,1.137 -1.507,1.711 -15.66,17.731 -30.445,34.47 -57.576,34.47 -27.131,0 -41.916,-16.739 -57.566,-34.47 -0.505,-0.574 -1.011,-1.137 -1.507,-1.711 1.244,-1.371 2.459,-2.751 3.674,-4.112 0.651,0.729 1.303,1.468 1.944,2.187 15.456,17.507 28.803,32.623 53.454,32.623 24.661,0 38.008,-15.116 53.464,-32.623 1.837,-2.08 3.704,-4.199 5.619,-6.309 0.505,-0.564 1.001,-1.137 1.507,-1.711 15.65,-17.721 30.445,-34.47 57.576,-34.47 27.131,0 41.916,16.749 57.576,34.47 0.495,0.574 1,1.147 1.506,1.711 z"
   id="path9" />
					<path
   style="fill:#ffffff"
   d="m 426.941,223.9 c 1.212,1.366 2.435,2.743 3.68,4.119 v -8.239 c -1.244,1.377 -2.467,2.754 -3.68,4.12 z"
   id="path10" />
					<path
   style="fill:#ffffff"
   d="m 545.1,223.9 c 1.212,1.366 2.435,2.743 3.68,4.119 v -8.239 c -1.245,1.377 -2.468,2.754 -3.68,4.12 z"
   id="path11" />
					<path
   style="fill:#ffffff"
   d="m 548.78,219.784 v 8.235 0 c 1.245,-1.376 2.467,-2.752 3.679,-4.117 -1.212,-1.369 -2.433,-2.741 -3.679,-4.118 z"
   id="path12" />
					<path
   style="fill:#ffffff"
   d="m 666.94,219.783 c -1.244,1.371 -2.469,2.751 -3.684,4.122 -0.651,-0.739 -1.293,-1.468 -1.934,-2.197 -15.466,-17.507 -28.803,-32.623 -53.464,-32.623 -24.652,0 -38.008,15.116 -53.464,32.623 -0.641,0.729 -1.283,1.458 -1.934,2.197 -1.205,1.361 -2.43,2.741 -3.674,4.112 -0.505,0.574 -1.011,1.137 -1.517,1.711 -15.65,17.731 -30.436,34.47 -57.566,34.47 -27.13,0 -41.916,-16.739 -57.576,-34.47 -0.496,-0.574 -1.001,-1.137 -1.507,-1.711 v -8.234 c 1.915,2.119 3.781,4.229 5.619,6.309 15.456,17.507 28.803,32.623 53.464,32.623 24.652,0 37.998,-15.116 53.454,-32.623 1.847,-2.08 3.713,-4.199 5.628,-6.309 0.505,-0.564 1.001,-1.137 1.507,-1.711 15.65,-17.721 30.436,-34.47 57.566,-34.47 27.131,0 41.916,16.749 57.576,34.47 0.495,0.574 1,1.147 1.506,1.711 z"
   id="path13" />
					<path
   style="fill:#ffffff"
   d="m 547.264,218.072 c -15.65,-17.721 -30.436,-34.47 -57.566,-34.47 -27.13,0 -41.916,16.749 -57.576,34.47 -0.496,0.574 -1.001,1.147 -1.507,1.711 -1.915,2.109 -3.781,4.229 -5.619,6.309 -15.456,17.507 -28.803,32.623 -53.454,32.623 h -0.01 c -24.652,0 -37.998,-15.116 -53.454,-32.623 -0.639,-0.724 -1.288,-1.456 -1.935,-2.186 -1.215,1.361 -2.439,2.74 -3.683,4.111 0.505,0.574 1.001,1.137 1.507,1.711 15.65,17.731 30.445,34.47 57.566,34.47 h 0.01 c 27.121,0 41.916,-16.739 57.566,-34.47 0.505,-0.574 1.001,-1.137 1.507,-1.711 1.244,-1.371 2.469,-2.751 3.684,-4.112 0.642,-0.739 1.293,-1.468 1.935,-2.197 15.456,-17.507 28.812,-32.623 53.464,-32.623 24.652,0 37.998,15.116 53.454,32.623 0.642,0.729 1.293,1.458 1.944,2.197 1.215,-1.371 2.44,-2.751 3.684,-4.122 -0.506,-0.564 -1.012,-1.137 -1.517,-1.711 z"
   id="path14" />
					<path
   style="fill:#ffffff"
   d="m 663.258,223.9 c 1.212,1.366 2.435,2.743 3.681,4.119 v -8.239 c -1.245,1.377 -2.468,2.754 -3.681,4.12 z"
   id="path15" />
					<path
   style="fill:#ffffff"
   d="m 726.017,258.715 c -24.655,0 -38.003,-15.116 -53.459,-32.62 -1.84,-2.084 -3.706,-4.197 -5.619,-6.31 v 8.235 c 0.503,0.569 1.006,1.138 1.508,1.706 15.655,17.729 30.441,34.475 57.57,34.475 h 10e-4 v -5.485 h -10e-4 z"
   id="path16" />
					<path
   style="fill:#ffffff"
   d="m 726.022,183.602 v 5.482 c -24.661,0 -38.008,15.116 -53.464,32.623 -0.642,0.729 -1.293,1.458 -1.934,2.197 -1.215,1.361 -2.44,2.741 -3.684,4.112 -0.505,0.574 -1.011,1.137 -1.507,1.711 -15.66,17.731 -30.445,34.47 -57.576,34.47 -27.13,0 -41.916,-16.739 -57.566,-34.47 -0.506,-0.574 -1.011,-1.137 -1.507,-1.711 1.244,-1.371 2.459,-2.751 3.674,-4.112 0.651,0.729 1.303,1.468 1.944,2.187 15.456,17.507 28.802,32.623 53.454,32.623 24.661,0 38.008,-15.116 53.464,-32.623 1.837,-2.08 3.704,-4.199 5.619,-6.309 0.505,-0.564 1.001,-1.137 1.507,-1.711 15.651,-17.72 30.446,-34.469 57.576,-34.469 z"
   id="path17" />
				</g>
			</g>
		</g>
		<g
   id="g190">
			<g
   id="shelf_1_">
				<g
   id="shelf">
					<path
   style="fill:#afafaf"
   d="m 61.653,168.693 c -2.482,0 -4.494,2.012 -4.494,4.494 0,2.482 2.012,4.494 4.494,4.494 h 46.03 l 8.987,-8.987 H 61.653 Z"
   id="path18" />
					<polygon
   style="fill:#bdbdbd"
   points="210.752,177.68 219.74,168.693 116.67,168.693 107.683,177.68 "
   id="polygon17" />
					<polygon
   style="fill:#afafaf"
   points="210.752,177.68 265.988,177.68 274.976,168.693 219.74,168.693 "
   id="polygon18" />
					<polygon
   style="fill:#afafaf"
   points="293.322,177.68 302.309,168.693 274.976,168.693 265.988,177.68 "
   id="polygon19" />
					<polygon
   style="fill:#afafaf"
   points="458.461,177.68 467.448,168.693 380.892,168.693 371.905,177.68 "
   id="polygon20" />
					<polygon
   style="fill:#afafaf"
   points="552.988,177.68 561.975,168.693 467.448,168.693 458.461,177.68 "
   id="polygon21" />
					<path
   style="fill:#bdbdbd"
   d="m 686.967,168.693 h -97.658 l -8.987,8.987 h 106.645 c 2.482,0 4.494,-2.012 4.494,-4.494 0,-2.482 -2.012,-4.493 -4.494,-4.493 z"
   id="path21" />
					<polygon
   style="fill:#afafaf"
   points="580.322,177.68 589.309,168.693 561.975,168.693 552.988,177.68 "
   id="polygon22" />
					<polygon
   style="fill:#bdbdbd"
   points="371.905,177.68 380.892,168.693 302.309,168.693 293.322,177.68 "
   id="polygon23" />
				</g>
				<g
   id="plants_1_">
					<g
   id="g30">
						<polygon
   style="opacity:0.8;fill:#f6f7fc"
   points="617.792,118.481 641.949,118.481 640.341,105.244 619.399,105.244 "
   id="polygon24" />
						<polygon
   style="fill:#75b6cb"
   points="648.048,168.693 641.949,118.481 617.792,118.481 611.692,168.693 "
   id="polygon25" />
						<path
   style="fill:#a4d3f1"
   d="m 641.949,118.481 h -24.158 l -3.833,31.557 c -0.568,4.677 3.082,8.798 7.794,8.798 h 16.236 c 4.711,0 8.362,-4.121 7.794,-8.798 z"
   id="path25" />
						<path
   style="fill:#d0f6c5"
   d="m 629.641,88.822 c -0.264,-1.222 -1.467,-2.002 -2.689,-1.736 -1.221,0.262 -1.999,1.466 -1.737,2.688 0.043,0.2 2.706,12.762 4.131,28.707 h 4.573 c -1.407,-16.129 -4.099,-28.823 -4.278,-29.659 z"
   id="path26" />
						<path
   style="fill:#8cd3bb"
   d="m 629.725,149.102 c -0.111,1.245 0.81,2.344 2.055,2.453 0.068,0.006 0.135,0.009 0.202,0.009 1.159,0 2.148,-0.887 2.251,-2.064 0.913,-10.361 0.532,-21.312 -0.315,-31.019 h -4.573 c 0.862,9.632 1.272,20.498 0.38,30.621 z"
   id="path27" />
						<path
   style="fill:#75b6cb"
   d="m 641.403,109.861 h -23.066 c -1.224,0 -2.216,-0.992 -2.216,-2.216 v -2.254 c 0,-1.224 0.992,-2.216 2.216,-2.216 h 23.066 c 1.224,0 2.216,0.992 2.216,2.216 v 2.254 c 0,1.224 -0.992,2.216 -2.216,2.216 z"
   id="path28" />
						<path
   style="fill:#4eb6b6"
   d="m 629.084,93.995 c -7.418,5.148 -36.449,-10.26 -29.381,-21.003 7.068,-10.744 38.832,14.444 29.381,21.003 z"
   id="path29" />
						<path
   style="fill:#a3d593"
   d="m 626.812,93.087 c -7.662,-10.344 13.016,-52.391 28.636,-42.792 15.62,9.6 -18.873,55.972 -28.636,42.792 z"
   id="path30" />
					</g>
					<g
   id="g37">
						<polygon
   style="opacity:0.8;fill:#f6f7fc"
   points="565.184,118.481 541.026,118.481 542.634,105.244 563.576,105.244 "
   id="polygon30" />
						<polygon
   style="fill:#75b6cb"
   points="534.927,168.693 541.026,118.481 565.184,118.481 571.283,168.693 "
   id="polygon31" />
						<path
   style="fill:#a4d3f1"
   d="m 541.026,118.481 h 24.158 l 3.833,31.557 c 0.568,4.677 -3.082,8.798 -7.794,8.798 h -16.236 c -4.711,0 -8.362,-4.121 -7.794,-8.798 z"
   id="path31" />
						<path
   style="fill:#d0f6c5"
   d="m 553.334,88.822 c 0.264,-1.222 1.468,-2.002 2.689,-1.736 1.221,0.262 1.999,1.466 1.737,2.688 -0.043,0.2 -2.706,12.762 -4.131,28.707 h -4.573 c 1.407,-16.129 4.099,-28.823 4.278,-29.659 z"
   id="path32" />
						<path
   style="fill:#4eb6b6"
   d="m 557.558,87.443 c 8.777,-3.162 14.079,-36.865 0.946,-37.354 -13.134,-0.49 -12.129,41.382 -0.946,37.354 z"
   id="path33" />
						<path
   style="fill:#8cd3bb"
   d="m 553.25,149.102 c 0.111,1.245 -0.81,2.344 -2.055,2.453 -0.068,0.006 -0.135,0.009 -0.202,0.009 -1.159,0 -2.148,-0.887 -2.251,-2.064 -0.913,-10.361 -0.532,-21.312 0.315,-31.019 h 4.573 c -0.862,9.632 -1.272,20.498 -0.38,30.621 z"
   id="path34" />
						<path
   style="fill:#75b6cb"
   d="m 542.577,109.861 h 21.057 c 1.779,0 3.22,-1.442 3.22,-3.22 v -0.245 c 0,-1.779 -1.442,-3.22 -3.22,-3.22 h -21.057 c -1.778,0 -3.22,1.442 -3.22,3.22 v 0.245 c -10e-4,1.779 1.441,3.22 3.22,3.22 z"
   id="path35" />
						<path
   style="fill:#a3d593"
   d="m 555.923,89.486 c 5.664,7.032 37.863,0.444 34.114,-11.858 -3.749,-12.301 -41.33,2.898 -34.114,11.858 z"
   id="path36" />
						<path
   style="fill:#52cfcf"
   d="M 557.48,87.878 C 559.709,78.599 533.411,55.904 525.537,66.981 517.662,78.059 554.639,99.7 557.48,87.878 Z"
   id="path37" />
					</g>
					<g
   id="g43">
						<polygon
   style="opacity:0.8;fill:#f6f7fc"
   points="360.672,118.481 336.514,118.481 338.122,105.244 359.064,105.244 "
   id="polygon37" />
						<polygon
   style="fill:#75b6cb"
   points="330.415,168.693 336.514,118.481 360.672,118.481 366.771,168.693 "
   id="polygon38" />
						<path
   style="fill:#a4d3f1"
   d="m 336.514,118.481 h 24.158 l 3.833,31.557 c 0.568,4.677 -3.082,8.798 -7.794,8.798 h -16.236 c -4.712,0 -8.362,-4.121 -7.794,-8.798 z"
   id="path38" />
						<path
   style="fill:#d0f6c5"
   d="m 348.822,88.822 c 0.264,-1.222 1.467,-2.002 2.689,-1.736 1.221,0.262 1.999,1.466 1.737,2.688 -0.043,0.2 -2.706,12.762 -4.131,28.707 h -4.573 c 1.407,-16.129 4.099,-28.823 4.278,-29.659 z"
   id="path39" />
						<path
   style="fill:#8cd3bb"
   d="m 348.738,149.102 c 0.111,1.245 -0.81,2.344 -2.055,2.453 -0.068,0.006 -0.135,0.009 -0.202,0.009 -1.16,0 -2.148,-0.887 -2.251,-2.064 -0.913,-10.361 -0.532,-21.312 0.315,-31.019 h 4.573 c -0.862,9.632 -1.272,20.498 -0.38,30.621 z"
   id="path40" />
						<path
   style="fill:#75b6cb"
   d="m 338.065,109.861 h 21.057 c 1.779,0 3.22,-1.442 3.22,-3.22 v -0.245 c 0,-1.779 -1.442,-3.22 -3.22,-3.22 h -21.057 c -1.779,0 -3.22,1.442 -3.22,3.22 v 0.245 c -0.001,1.779 1.441,3.22 3.22,3.22 z"
   id="path41" />
						<path
   style="fill:#a3d593"
   d="m 351.981,92.405 c 7.266,2.786 28.402,-16.072 20.28,-23.613 -8.123,-7.542 -29.538,20.063 -20.28,23.613 z"
   id="path42" />
						<path
   style="fill:#4eb6b6"
   d="m 351.204,93.594 c 4.713,-8.188 -13.911,-37.098 -24.489,-28.78 -10.578,8.318 18.483,39.213 24.489,28.78 z"
   id="path43" />
					</g>
				</g>
			</g>
			<g
   id="stand_1_">
				<g
   id="tubes">
					<g
   id="g45">
						<rect
   x="102.792"
   y="319.27899"
   style="opacity:0.7;fill:#f0f4fb"
   width="20.295"
   height="20.164"
   id="rect43" />
						<path
   style="fill:#ff6c2f"
   d="m 102.792,339.443 v 66.173 c 0,5.604 4.543,10.147 10.147,10.147 5.604,0 10.147,-4.543 10.147,-10.147 v -66.173 z"
   id="path44" />
						<ellipse
   style="opacity:0.5;fill:#f0f4fb"
   cx="109.934"
   cy="400.698"
   rx="5.4169998"
   ry="7.8600001"
   id="ellipse44" />
						<path
   style="fill:#328ab1"
   d="m 123.636,325.267 h -21.393 c -2.507,0 -4.539,-2.032 -4.539,-4.539 v -0.072 c 0,-2.507 2.032,-4.539 4.539,-4.539 h 21.393 c 2.507,0 4.539,2.032 4.539,4.539 v 0.072 c -0.001,2.507 -2.033,4.539 -4.539,4.539 z"
   id="path45" />
					</g>
					<g
   id="g47">
						<path
   style="fill:#e764c2"
   d="m 141.755,375.168 v 30.447 c 0,5.604 4.543,10.147 10.148,10.147 5.604,0 10.148,-4.543 10.148,-10.147 v -30.447 z"
   id="path46" />
						<ellipse
   style="opacity:0.5;fill:#f0f4fb"
   cx="149.884"
   cy="400.698"
   rx="5.4169998"
   ry="7.8600001"
   id="ellipse46" />
						<rect
   x="141.755"
   y="319.27899"
   style="opacity:0.7;fill:#f0f4fb"
   width="20.295"
   height="55.889999"
   id="rect46" />
						<path
   style="fill:#328ab1"
   d="m 162.599,325.267 h -21.393 c -2.507,0 -4.539,-2.032 -4.539,-4.539 v -0.072 c 0,-2.507 2.032,-4.539 4.539,-4.539 h 21.393 c 2.507,0 4.539,2.032 4.539,4.539 v 0.072 c 0,2.507 -2.032,4.539 -4.539,4.539 z"
   id="path47" />
					</g>
					<g
   id="g49">
						<path
   style="fill:#67c451"
   d="m 180.718,361.988 v 43.628 c 0,5.604 4.543,10.147 10.148,10.147 5.604,0 10.148,-4.543 10.148,-10.147 v -43.628 z"
   id="path48" />
						<ellipse
   style="opacity:0.5;fill:#f0f4fb"
   cx="188.83501"
   cy="400.698"
   rx="5.4169998"
   ry="7.8600001"
   id="ellipse48" />
						<rect
   x="180.718"
   y="319.27899"
   style="opacity:0.7;fill:#f0f4fb"
   width="20.295"
   height="42.709"
   id="rect48" />
						<path
   style="fill:#328ab1"
   d="m 201.562,325.267 h -21.393 c -2.507,0 -4.539,-2.032 -4.539,-4.539 v -0.072 c 0,-2.507 2.032,-4.539 4.539,-4.539 h 21.393 c 2.507,0 4.539,2.032 4.539,4.539 v 0.072 c 0,2.507 -2.032,4.539 -4.539,4.539 z"
   id="path49" />
					</g>
					<g
   id="g51">
						<rect
   x="219.68201"
   y="319.27899"
   style="opacity:0.7;fill:#f0f4fb"
   width="20.295"
   height="27.622"
   id="rect49" />
						<path
   style="fill:#ffc32f"
   d="m 219.682,346.9 v 58.716 c 0,5.604 4.543,10.147 10.147,10.147 5.604,0 10.148,-4.543 10.148,-10.147 V 346.9 Z"
   id="path50" />
						<ellipse
   style="opacity:0.5;fill:#f0f4fb"
   cx="227.869"
   cy="400.698"
   rx="5.4169998"
   ry="7.8600001"
   id="ellipse50" />
						<path
   style="fill:#328ab1"
   d="m 240.525,325.267 h -21.393 c -2.507,0 -4.539,-2.032 -4.539,-4.539 v -0.072 c 0,-2.507 2.032,-4.539 4.539,-4.539 h 21.393 c 2.507,0 4.539,2.032 4.539,4.539 v 0.072 c 0,2.507 -2.032,4.539 -4.539,4.539 z"
   id="path51" />
					</g>
				</g>
				<g
   id="stand">
					<rect
   x="250.179"
   y="296.5"
   style="fill:#8c8c8c"
   width="7.125"
   height="20.32"
   id="rect51" />
					<rect
   x="250.179"
   y="382.04401"
   style="fill:#afafaf"
   width="7.125"
   height="52.466999"
   id="rect52" />
					<rect
   x="250.179"
   y="361.97501"
   style="fill:#8c8c8c"
   width="7.125"
   height="20.069"
   id="rect53" />
					<rect
   x="250.179"
   y="316.82001"
   style="fill:#afafaf"
   width="7.125"
   height="45.154999"
   id="rect54" />
					<rect
   x="85.463997"
   y="296.5"
   style="fill:#8c8c8c"
   width="7.125"
   height="20.32"
   id="rect55" />
					<rect
   x="85.463997"
   y="361.97501"
   style="fill:#8c8c8c"
   width="7.125"
   height="20.069"
   id="rect56" />
					<rect
   x="85.463997"
   y="382.04401"
   style="fill:#afafaf"
   width="7.125"
   height="52.466999"
   id="rect57" />
					<rect
   x="85.463997"
   y="316.82001"
   style="fill:#afafaf"
   width="7.125"
   height="45.154999"
   id="rect58" />
					<path
   style="fill:#ffb9ea"
   d="M 263.397,370.027 H 79.371 c -3.733,0 -6.759,-3.026 -6.759,-6.759 v 0 c 0,-3.733 3.026,-6.759 6.759,-6.759 h 184.026 c 3.733,0 6.759,3.026 6.759,6.759 v 0 c 0,3.732 -3.026,6.759 -6.759,6.759 z"
   id="path58" />
					<path
   style="fill:#ffb9ea"
   d="M 263.397,304.14 H 79.371 c -3.733,0 -6.759,-3.026 -6.759,-6.759 v 0 c 0,-3.733 3.026,-6.759 6.759,-6.759 h 184.026 c 3.733,0 6.759,3.026 6.759,6.759 v 0 c 0,3.733 -3.026,6.759 -6.759,6.759 z"
   id="path59" />
					<path
   style="fill:#ffb9ea"
   d="M 263.397,435.913 H 79.371 c -3.733,0 -6.759,-3.026 -6.759,-6.759 v 0 c 0,-3.733 3.026,-6.759 6.759,-6.759 h 184.026 c 3.733,0 6.759,3.026 6.759,6.759 v 0 c 0,3.733 -3.026,6.759 -6.759,6.759 z"
   id="path60" />
				</g>
				<g
   id="plants">
					<g
   id="g78">
						<polygon
   style="opacity:0.7;fill:#f0f4fb"
   points="216.758,221.911 249.815,221.911 247.615,203.798 218.958,203.798 "
   id="polygon60" />
						<polygon
   style="fill:#328ab1"
   points="258.161,290.622 249.815,221.911 216.758,221.911 208.411,290.622 "
   id="polygon61" />
						<path
   style="fill:#67bcef"
   d="m 249.815,221.911 h -33.058 l -5.245,43.183 c -0.777,6.4 4.218,12.039 10.665,12.039 h 22.218 c 6.447,0 11.443,-5.639 10.665,-12.039 z"
   id="path61" />
						<path
   style="fill:#cbdaff"
   d="m 249.036,266.906 c 0.125,2.175 -1.606,3.939 -4.088,4.088 -2.254,0.135 -4.088,-1.83 -4.088,-4.088 0,-2.258 1.83,-4.088 4.088,-4.088 2.258,0 3.959,1.834 4.088,4.088 z"
   id="path62" />
						<path
   style="fill:#cbdaff"
   d="m 222.663,263.555 c 0,1.646 -1.335,2.981 -2.981,2.981 -1.646,0 -2.981,-1.335 -2.981,-2.981 0,-1.646 1.335,-2.981 2.981,-2.981 1.646,0 2.981,1.334 2.981,2.981 z"
   id="path63" />
						<path
   style="fill:#43a4de"
   d="m 249.644,251.032 c 0,1.646 -1.335,2.981 -2.981,2.981 -1.646,0 -2.981,-1.335 -2.981,-2.981 0,-1.646 1.335,-2.981 2.981,-2.981 1.646,0 2.981,1.334 2.981,2.981 z"
   id="path64" />
						<path
   style="fill:#f5fffd"
   d="m 231.004,272.45 c -0.033,0 -0.068,-10e-4 -0.102,-0.004 -1.844,-0.144 -3.328,-0.995 -4.292,-2.461 -3.313,-5.04 0.341,-16.141 0.768,-17.391 0.231,-0.675 0.963,-1.034 1.644,-0.805 0.676,0.231 1.037,0.967 0.806,1.643 -1.047,3.063 -3.276,11.753 -1.054,15.132 0.529,0.805 1.269,1.217 2.33,1.301 0.712,0.056 1.245,0.679 1.19,1.392 -0.054,0.679 -0.621,1.193 -1.29,1.193 z"
   id="path65" />
						<path
   style="fill:#d5ffff"
   d="m 237.609,260.574 c -0.133,0 -0.269,-0.02 -0.402,-0.065 -0.68,-0.221 -1.051,-0.952 -0.829,-1.632 1.367,-4.186 0.626,-8.532 -2.2,-12.92 l -0.311,-0.498 c -0.151,-0.245 -0.372,-0.603 -0.625,-0.971 -0.242,3.921 -1.733,7.509 -4.208,9.949 -1.492,1.468 -3.75,2.355 -5.891,2.298 -1.86,-0.024 -3.523,-0.7 -4.68,-1.903 -0.496,-0.514 -0.48,-1.334 0.035,-1.83 0.515,-0.494 1.334,-0.48 1.83,0.035 0.674,0.7 1.686,1.093 2.849,1.11 1.494,-0.004 3.045,-0.576 4.04,-1.556 2.525,-2.487 3.796,-6.504 3.401,-10.748 l -0.151,-1.622 1.614,0.219 c 1.892,0.257 3.155,2.305 3.99,3.66 l 0.284,0.455 c 3.269,5.074 4.105,10.164 2.485,15.126 -0.179,0.546 -0.686,0.893 -1.231,0.893 z"
   id="path66" />
						<path
   style="fill:#f5fffd"
   d="m 243.656,241.833 c -0.6,0 -1.138,-0.418 -1.266,-1.029 -0.925,-4.411 -5.608,-6.703 -9.566,-6.967 -0.714,-0.048 -1.253,-0.665 -1.205,-1.378 0.047,-0.713 0.673,-1.239 1.377,-1.206 4.902,0.327 10.726,3.289 11.928,9.02 0.147,0.699 -0.301,1.385 -1.001,1.532 -0.09,0.019 -0.18,0.028 -0.267,0.028 z"
   id="path67" />
						<path
   style="fill:#f5fffd"
   d="m 221.679,242.369 c -1.784,0 -3.374,-0.454 -4.458,-1.234 -0.58,-0.417 -0.712,-1.226 -0.295,-1.807 0.417,-0.579 1.227,-0.714 1.807,-0.294 1.708,1.225 6.866,1.311 10.228,-2.918 0.445,-0.559 1.258,-0.651 1.819,-0.209 0.56,0.445 0.653,1.259 0.208,1.819 -2.632,3.311 -6.255,4.643 -9.309,4.643 z"
   id="path68" />
						<g
   id="g77">
							<path
   style="fill:#49be92"
   d="m 229.375,243.279 c 0.094,1.365 1.231,2.412 2.581,2.412 0.059,0 0.119,-0.003 0.179,-0.006 1.427,-0.097 2.504,-1.332 2.406,-2.76 -0.459,-6.732 -0.583,-13.795 -0.439,-21.014 h -5.176 c -0.144,7.337 -0.018,14.519 0.449,21.368 z"
   id="path69" />
							<path
   style="fill:#138f8d"
   d="m 239.856,144.553 c 0,0 -13.158,-35.218 -21.036,-20.226 -7.878,14.992 18.823,31.879 18.823,31.879 z"
   id="path70" />
							<path
   style="fill:#67c451"
   d="m 246.748,117.455 c 0,0 -4.949,-28.41 -12.192,-19.628 -7.243,8.783 9.136,26.991 9.136,26.991 z"
   id="path71" />
							<path
   style="fill:#138f8d"
   d="m 250.294,110.076 c 0,0 25.988,-27.167 27.311,-10.283 1.323,16.884 -29.876,21.863 -29.876,21.863 z"
   id="path72" />
							<path
   style="fill:#67c451"
   d="m 236.389,169.846 c 0,0 21.928,-30.538 25.602,-14.006 3.674,16.532 -26.52,25.831 -26.52,25.831 z"
   id="path73" />
							<path
   style="fill:#138f8d"
   d="m 243.146,135.162 c 0,0 18.212,-17.522 18.629,-6.146 0.418,11.376 -20.675,13.851 -20.675,13.851 z"
   id="path74" />
							<path
   style="fill:#67c451"
   d="m 250.016,103.318 c 0,0 -0.459,-30.581 11.833,-23.048 9.706,5.949 -6.669,24.186 -6.669,24.186 z"
   id="path75" />
							<path
   style="fill:#9de08a"
   d="m 245.272,136.65 c 4.749,-20.328 10.29,-32.956 10.345,-33.082 0.578,-1.307 -0.011,-2.836 -1.319,-3.415 -1.307,-0.579 -2.835,0.011 -3.415,1.317 -0.234,0.527 -5.784,13.157 -10.654,34.001 -4.397,18.819 -8.629,43.663 -10.439,68.326 h 5.187 c 1.802,-24.221 5.968,-48.628 10.295,-67.147 z"
   id="path76" />
							<path
   style="fill:#b4f39d"
   d="m 229.791,203.798 c -0.446,6.08 -0.747,12.149 -0.865,18.114 h 5.176 c 0.118,-5.962 0.424,-12.032 0.876,-18.114 z"
   id="path77" />
						</g>
						<path
   style="fill:#67bcef"
   d="m 249.136,206.896 h -31.699 c -1.637,0 -2.965,-1.327 -2.965,-2.965 v 0 c 0,-1.637 1.327,-2.965 2.965,-2.965 h 31.699 c 1.637,0 2.965,1.327 2.965,2.965 v 0 c -0.001,1.638 -1.328,2.965 -2.965,2.965 z"
   id="path78" />
					</g>
					<g
   id="g94">
						<polygon
   style="opacity:0.7;fill:#f0f4fb"
   points="155.869,221.911 188.927,221.911 186.727,203.798 158.069,203.798 "
   id="polygon78" />
						<polygon
   style="fill:#328ab1"
   points="197.273,290.622 188.927,221.911 155.869,221.911 147.523,290.622 "
   id="polygon79" />
						<path
   style="fill:#67bcef"
   d="m 188.927,221.911 h -33.058 l -5.245,43.183 c -0.777,6.4 4.218,12.039 10.665,12.039 h 22.218 c 6.447,0 11.443,-5.639 10.665,-12.039 z"
   id="path79" />
						<path
   style="fill:#cbdaff"
   d="m 167.17,264.182 c 0.106,1.841 -1.36,3.335 -3.461,3.461 -1.908,0.114 -3.461,-1.55 -3.461,-3.461 0,-1.911 1.55,-3.461 3.461,-3.461 1.911,0 3.352,1.553 3.461,3.461 z"
   id="path80" />
						<path
   style="fill:#cbdaff"
   d="m 185.249,228.27 c 0,1.646 -1.335,2.981 -2.981,2.981 -1.646,0 -2.981,-1.335 -2.981,-2.981 0,-1.646 1.335,-2.981 2.981,-2.981 1.646,0 2.981,1.335 2.981,2.981 z"
   id="path81" />
						<circle
   style="fill:#43a4de"
   cx="179.633"
   cy="265.94901"
   r="5.0510001"
   id="circle81" />
						<path
   style="fill:#f5fffd"
   d="m 171.251,260.407 c -0.413,0 -0.818,-0.197 -1.069,-0.563 -2.951,-4.307 -3.581,-9.426 -1.872,-15.215 l 0.145,-0.52 c 0.421,-1.535 1.056,-3.853 2.799,-4.631 l 1.487,-0.664 0.311,1.598 c 0.815,4.183 3.165,7.681 6.289,9.359 1.229,0.659 2.882,0.796 4.313,0.354 1.112,-0.341 1.973,-1.005 2.423,-1.866 0.331,-0.632 1.111,-0.878 1.746,-0.549 0.634,0.331 0.879,1.114 0.548,1.747 -0.772,1.479 -2.177,2.595 -3.956,3.143 -2.098,0.646 -4.455,0.441 -6.299,-0.549 -3.062,-1.643 -5.503,-4.667 -6.838,-8.362 -0.138,0.422 -0.249,0.827 -0.325,1.104 l -0.16,0.569 c -1.477,5.006 -0.964,9.386 1.525,13.018 0.405,0.59 0.254,1.396 -0.336,1.8 -0.224,0.154 -0.479,0.227 -0.731,0.227 z"
   id="path82" />
						<path
   style="fill:#d5ffff"
   d="m 182.767,241.833 c -0.6,0 -1.138,-0.418 -1.265,-1.029 -0.925,-4.411 -5.608,-6.703 -9.566,-6.967 -0.714,-0.048 -1.253,-0.665 -1.205,-1.378 0.047,-0.713 0.676,-1.239 1.377,-1.206 4.902,0.327 10.726,3.289 11.928,9.02 0.147,0.699 -0.301,1.385 -1.001,1.532 -0.09,0.019 -0.18,0.028 -0.268,0.028 z"
   id="path83" />
						<path
   style="fill:#f5fffd"
   d="m 158.762,244.934 c -0.078,0 -0.158,-0.006 -0.238,-0.021 -0.703,-0.132 -1.166,-0.807 -1.035,-1.509 1.226,-6.586 6.971,-9.938 10.563,-9.462 0.708,0.097 1.204,0.75 1.107,1.458 -0.096,0.709 -0.75,1.197 -1.457,1.109 -2.079,-0.283 -6.68,2.059 -7.668,7.369 -0.117,0.621 -0.661,1.056 -1.272,1.056 z"
   id="path84" />
						<g
   id="g93">
							<path
   style="fill:#49be92"
   d="m 168.487,242.522 c 0.094,1.365 1.231,2.412 2.581,2.412 0.059,0 0.119,-0.003 0.179,-0.006 1.427,-0.097 2.504,-1.332 2.406,-2.76 -0.46,-6.732 -0.583,-13.795 -0.439,-21.014 h -5.176 c -0.145,7.337 -0.019,14.519 0.449,21.368 z"
   id="path85" />
							<path
   style="fill:#67c451"
   d="m 178.968,144.553 c 0,0 -13.158,-35.218 -21.036,-20.226 -7.878,14.991 18.823,31.879 18.823,31.879 z"
   id="path86" />
							<path
   style="fill:#138f8d"
   d="m 185.86,117.455 c 0,0 -4.949,-28.41 -12.193,-19.628 -7.243,8.783 9.136,26.991 9.136,26.991 z"
   id="path87" />
							<path
   style="fill:#67c451"
   d="m 188.782,112.89 c 0,0 19.674,-20.566 20.675,-7.785 1.001,12.781 -22.617,16.551 -22.617,16.551 z"
   id="path88" />
							<path
   style="fill:#138f8d"
   d="m 175.501,169.846 c 0,0 21.928,-30.538 25.602,-14.006 3.674,16.532 -26.52,25.831 -26.52,25.831 z"
   id="path89" />
							<path
   style="fill:#138f8d"
   d="m 182.258,135.162 c 0,0 18.212,-17.522 18.629,-6.146 0.417,11.376 -20.675,13.851 -20.675,13.851 z"
   id="path90" />
							<path
   style="fill:#67c451"
   d="m 173.043,180.652 c 0,0 -20.333,-27.945 -23.615,-12.727 -3.281,15.218 24.527,23.591 24.527,23.591 z"
   id="path91" />
							<path
   style="fill:#9de08a"
   d="m 184.383,136.65 c 4.749,-20.328 10.29,-32.956 10.345,-33.082 0.578,-1.307 -0.011,-2.836 -1.318,-3.415 -1.307,-0.579 -2.835,0.011 -3.415,1.317 -0.234,0.527 -5.783,13.157 -10.654,34.001 -4.397,18.819 -8.629,43.663 -10.438,68.326 h 5.187 c 1.8,-24.221 5.967,-48.628 10.293,-67.147 z"
   id="path92" />
							<path
   style="fill:#b4f39d"
   d="m 168.902,203.798 c -0.446,6.08 -0.747,12.149 -0.865,18.114 h 5.176 c 0.119,-5.962 0.424,-12.032 0.876,-18.114 z"
   id="path93" />
						</g>
						<path
   style="fill:#67bcef"
   d="m 188.247,206.896 h -31.699 c -1.637,0 -2.965,-1.327 -2.965,-2.965 v 0 c 0,-1.637 1.327,-2.965 2.965,-2.965 h 31.699 c 1.637,0 2.965,1.327 2.965,2.965 v 0 c 0,1.638 -1.327,2.965 -2.965,2.965 z"
   id="path94" />
					</g>
					<g
   id="g111">
						<polygon
   style="opacity:0.7;fill:#f0f4fb"
   points="94.019,221.911 127.076,221.911 124.876,203.798 96.219,203.798 "
   id="polygon94" />
						<polygon
   style="fill:#328ab1"
   points="135.423,290.622 127.076,221.911 94.019,221.911 85.673,290.622 "
   id="polygon95" />
						<path
   style="fill:#67bcef"
   d="M 127.076,221.911 H 94.019 l -5.245,43.183 c -0.777,6.4 4.218,12.039 10.665,12.039 h 22.218 c 6.447,0 11.443,-5.639 10.665,-12.039 z"
   id="path95" />
						<circle
   style="fill:#43a4de"
   cx="121.795"
   cy="241.533"
   r="3.5369999"
   id="circle95" />
						<circle
   style="fill:#43a4de"
   cx="98.400002"
   cy="264.83801"
   r="3.5369999"
   id="circle96" />
						<path
   style="fill:#43a4de"
   d="m 113.314,271 c 0,1.45 -1.175,2.625 -2.625,2.625 -1.45,0 -2.625,-1.175 -2.625,-2.625 0,-1.45 1.175,-2.625 2.625,-2.625 1.45,10e-4 2.625,1.176 2.625,2.625 z"
   id="path96" />
						<circle
   style="fill:#cbdaff"
   cx="122.601"
   cy="267.715"
   r="4.2449999"
   id="circle97" />
						<path
   style="fill:#d5ffff"
   d="m 110.151,265.345 c -0.085,0 -0.17,-0.008 -0.256,-0.025 -0.659,-0.133 -1.099,-0.742 -1.034,-1.397 0.152,-6.246 3.035,-10.864 7.914,-12.801 0.664,-0.262 1.417,0.063 1.681,0.726 0.264,0.665 -0.061,1.417 -0.726,1.681 -5.299,2.102 -6.207,7.381 -6.276,10.342 -0.006,0.238 -0.025,0.387 -0.034,0.435 -0.125,0.615 -0.665,1.039 -1.269,1.039 z"
   id="path97" />
						<path
   style="fill:#f5fffd"
   d="m 113.007,243.472 -0.387,-0.374 c -0.747,-0.731 -1.747,-1.693 -2.881,-2.217 -0.908,0.855 -2.289,0.34 -3.053,1.32 0.918,3.59 1.04,8.597 -0.6,11.28 -0.728,1.191 -2.085,2.144 -3.542,2.488 -1.134,0.267 -2.211,0.13 -3.035,-0.388 -0.606,-0.378 -1.404,-0.196 -1.784,0.41 -0.38,0.606 -0.197,1.404 0.409,1.785 1.416,0.886 3.192,1.142 5.004,0.713 2.138,-0.503 4.067,-1.871 5.158,-3.657 1.813,-2.964 2.391,-6.806 1.676,-10.671 0.334,0.296 0.635,0.589 0.839,0.79 l 0.424,0.408 c 3.804,3.574 5.575,7.613 5.261,12.004 -0.051,0.713 0.486,1.332 1.199,1.383 0.032,0.003 0.063,0.004 0.094,0.004 0.673,0 1.241,-0.521 1.29,-1.202 0.371,-5.208 -1.671,-9.944 -6.072,-14.076 z"
   id="path98" />
						<path
   style="fill:#d5ffff"
   d="m 116.091,236.364 c -0.529,0 -1.025,-0.326 -1.217,-0.852 -1.293,-3.557 -4.645,-3.602 -4.8,-3.602 -0.001,0 -0.001,0 -0.001,0 -10e-4,0 -10e-4,0 -0.002,0 -0.71,0 -1.293,-0.573 -1.299,-1.283 -0.006,-0.712 0.558,-1.294 1.269,-1.306 0.209,0 5.327,-0.025 7.266,5.306 0.244,0.673 -0.102,1.415 -0.774,1.659 -0.146,0.053 -0.296,0.078 -0.442,0.078 z"
   id="path99" />
						<path
   style="fill:#f5fffd"
   d="m 95.955,246.603 c -0.063,0 -0.125,-0.004 -0.188,-0.014 -0.708,-0.102 -1.198,-0.76 -1.095,-1.468 0.611,-4.188 3.043,-7.68 6.848,-9.833 3.104,-1.757 6.942,-2.454 8.927,-1.622 0.659,0.277 0.97,1.035 0.694,1.695 -0.276,0.659 -1.036,0.97 -1.694,0.694 -0.832,-0.349 -3.762,-0.149 -6.653,1.487 -2.188,1.238 -4.929,3.622 -5.56,7.953 -0.094,0.644 -0.647,1.108 -1.279,1.108 z"
   id="path100" />
						<path
   style="fill:#138f8d"
   d="m 130.115,105.351 c 0,0 6.451,-27.72 -4.795,-21.565 -11.246,6.155 -2.069,30.948 -2.069,30.948 z"
   id="path101" />
						<path
   style="fill:#49be92"
   d="m 106.636,242.522 c 0.094,1.365 1.231,2.412 2.581,2.412 0.059,0 0.119,-0.003 0.179,-0.006 1.427,-0.097 2.504,-1.332 2.406,-2.76 -0.46,-6.732 -0.583,-13.795 -0.439,-21.014 h -5.176 c -0.144,7.337 -0.018,14.519 0.449,21.368 z"
   id="path102" />
						<path
   style="fill:#67c451"
   d="m 117.117,144.553 c 0,0 -13.158,-35.218 -21.036,-20.226 -7.878,14.991 18.823,31.879 18.823,31.879 z"
   id="path103" />
						<path
   style="fill:#67c451"
   d="m 125.33,114.272 c 0,0 -7.088,-40.69 -17.462,-28.111 -10.374,12.579 13.085,38.658 13.085,38.658 z"
   id="path104" />
						<path
   style="fill:#67c451"
   d="m 126.932,112.89 c 0,0 19.674,-20.566 20.675,-7.785 1.001,12.781 -22.617,16.551 -22.617,16.551 z"
   id="path105" />
						<path
   style="fill:#67c451"
   d="m 113.422,172.783 c 0,0 16.481,-22.953 19.242,-10.527 2.761,12.426 -19.933,19.415 -19.933,19.415 z"
   id="path106" />
						<path
   style="fill:#138f8d"
   d="m 119.819,137.453 c 0,0 33.189,-31.932 33.95,-11.199 0.761,20.732 -37.678,25.243 -37.678,25.243 z"
   id="path107" />
						<path
   style="fill:#138f8d"
   d="m 111.193,180.652 c 0,0 -20.333,-27.945 -23.615,-12.727 -3.281,15.218 24.527,23.591 24.527,23.591 z"
   id="path108" />
						<path
   style="fill:#9de08a"
   d="m 122.533,136.65 c 4.749,-20.328 10.29,-32.956 10.345,-33.082 0.578,-1.307 -0.011,-2.836 -1.319,-3.415 -1.307,-0.579 -2.835,0.011 -3.415,1.317 -0.234,0.527 -5.783,13.157 -10.654,34.001 -4.397,18.819 -8.629,43.663 -10.438,68.326 h 5.187 c 1.801,-24.221 5.967,-48.628 10.294,-67.147 z"
   id="path109" />
						<path
   style="fill:#b4f39d"
   d="m 107.052,203.798 c -0.446,6.08 -0.747,12.149 -0.865,18.114 h 5.176 c 0.118,-5.962 0.424,-12.032 0.876,-18.114 z"
   id="path110" />
						<path
   style="fill:#67bcef"
   d="M 126.397,206.896 H 94.698 c -1.637,0 -2.965,-1.327 -2.965,-2.965 v 0 c 0,-1.637 1.327,-2.965 2.965,-2.965 h 31.699 c 1.637,0 2.965,1.327 2.965,2.965 v 0 c -0.001,1.638 -1.328,2.965 -2.965,2.965 z"
   id="path111" />
					</g>
				</g>
			</g>
			<g
   id="girl">
				<path
   style="fill:#1e2a5b"
   d="m 503.68,164.232 -7.614,1.142 c 4.556,5.696 23.608,32.721 12.929,74.833 l 8.555,0.064 c 12.117,-47.664 -13.87,-76.039 -13.87,-76.039 z"
   id="path112" />
				<path
   style="fill:#14192d"
   d="m 496.066,165.374 -1.951,0.293 0.188,6.282 c 6.861,11.438 16.792,35.177 8.43,68.212 l 6.261,0.047 c 10.68,-42.113 -8.372,-69.138 -12.928,-74.834 z"
   id="path113" />
				<path
   style="fill:#0f121d"
   d="m 494.304,171.948 2.043,68.164 6.387,0.048 c 8.361,-33.035 -1.569,-56.773 -8.43,-68.212 z"
   id="path114" />
				<path
   style="fill:#cbdaff"
   d="m 366.528,279.234 c -9.717,13.741 -23.864,29.475 -23.864,29.475 0,0 13.352,50.623 -10.609,68.099 3.977,1.99 7.78,2.546 11.232,1.101 23.803,-9.964 60.457,-50.652 60.457,-50.652 0,0 28.697,-78.031 29.144,-91.6 0.002,10e-4 -41.461,8.369 -66.36,43.577 z"
   id="path115" />
				<path
   style="fill:#e1e8fb"
   d="M 342.665,308.708 316.44,265.257 c 0,0 -25.187,32.107 -37.366,37.919 0,0 29.537,61.9 52.982,73.631 23.961,-17.475 10.609,-68.099 10.609,-68.099 z"
   id="path116" />
				<path
   style="fill:#e1e8fb"
   d="m 397.421,279.394 c 5.654,-35.413 32.066,-49.072 45.354,-47.57 9.922,1.121 52.65,2.731 69.703,4.029 4.42,0.337 6.849,2.2 6.849,2.2 l 29.911,34.736 9.266,91.497 4.09,71.296 h -169.28 c -0.001,0.001 -3.171,-110.602 4.107,-156.188 z"
   id="path117" />
				<path
   style="fill:#cd4da5"
   d="m 412.609,334.124 c 0,0 7.412,9.074 14.007,9.676 6.595,0.602 19.859,-6.471 19.859,-6.471 0,0 -25.124,-9.345 -30.322,-8.432 -5.594,0.983 -3.544,5.227 -3.544,5.227 z"
   id="path118" />
				<g
   id="plant">
					<g
   id="g119">
						<path
   style="fill:#f5fffd"
   d="m 429.648,419.288 c -0.375,0 -0.746,-0.162 -1.003,-0.474 -2.627,-3.203 -1.22,-6.637 -0.09,-9.395 0.18,-0.439 0.359,-0.876 0.522,-1.31 0.393,-1.044 0.134,-1.589 -0.489,-2.719 -0.359,-0.652 -0.766,-1.391 -1.001,-2.334 -0.445,-1.785 0.925,-3.696 2.512,-5.909 1.229,-1.713 2.757,-3.844 2.473,-4.968 -0.174,-0.694 0.245,-1.397 0.938,-1.573 0.693,-0.172 1.398,0.245 1.573,0.938 0.578,2.289 -1.18,4.741 -2.88,7.111 -0.844,1.178 -2.259,3.15 -2.102,3.775 0.153,0.616 0.445,1.147 0.755,1.709 0.657,1.192 1.477,2.676 0.645,4.882 -0.172,0.456 -0.359,0.915 -0.549,1.378 -1.214,2.965 -1.841,4.899 -0.303,6.773 0.453,0.552 0.373,1.368 -0.181,1.822 -0.241,0.198 -0.532,0.294 -0.82,0.294 z"
   id="path119" />
					</g>
					<g
   id="g120">
						<path
   style="fill:#f5fffd"
   d="m 455.892,413.527 c -0.598,0 -1.135,-0.416 -1.265,-1.025 -2.077,-9.748 -6.804,-10.255 -7.005,-10.271 -0.703,-0.059 -1.241,-0.673 -1.195,-1.377 0.046,-0.704 0.646,-1.235 1.341,-1.209 0.279,0.014 6.864,0.465 9.391,12.318 0.148,0.699 -0.297,1.387 -0.997,1.535 -0.09,0.02 -0.181,0.029 -0.27,0.029 z"
   id="path120" />
					</g>
					<g
   id="g121">
						<path
   style="fill:#9de08a"
   d="m 447.666,409.032 c -0.64,0 -1.195,-0.473 -1.282,-1.124 -0.547,-4.11 -0.152,-7.939 1.176,-11.381 1.037,-2.694 2.432,-4.861 4.264,-6.622 0.517,-0.497 1.335,-0.479 1.831,0.035 0.496,0.516 0.479,1.335 -0.035,1.831 -1.554,1.493 -2.746,3.354 -3.643,5.687 -1.171,3.033 -1.514,6.433 -1.025,10.108 0.095,0.708 -0.403,1.359 -1.113,1.454 -0.06,0.008 -0.116,0.012 -0.173,0.012 z"
   id="path121" />
					</g>
					<g
   id="g122">
						<path
   style="fill:#d5ffff"
   d="m 426.382,395.547 c -1.965,0 -3.991,-0.389 -6.012,-1.18 -0.666,-0.26 -0.995,-1.011 -0.734,-1.677 0.26,-0.666 1.009,-0.995 1.678,-0.734 6.198,2.426 10.463,-0.015 12.456,-1.685 2.512,-2.106 3.706,-4.897 3.411,-6.38 -0.14,-0.702 0.315,-1.383 1.015,-1.523 0.709,-0.145 1.384,0.315 1.523,1.015 0.532,2.662 -1.23,6.311 -4.285,8.873 -2.601,2.178 -5.735,3.291 -9.052,3.291 z"
   id="path122" />
					</g>
					<g
   id="g123">
						<path
   style="fill:#d5ffff"
   d="m 455.893,397.355 c -0.53,0 -1.026,-0.327 -1.217,-0.854 -1.169,-3.236 -3.696,-6.189 -6.598,-7.708 -2.093,-1.096 -4.296,-1.183 -7.178,-1.187 -0.716,-10e-4 -1.294,-0.581 -1.293,-1.296 10e-4,-0.714 0.58,-1.293 1.295,-1.293 h 0.001 c 2.605,0.004 5.558,0.008 8.376,1.483 3.45,1.805 6.451,5.301 7.832,9.121 0.243,0.672 -0.105,1.415 -0.777,1.657 -0.147,0.053 -0.295,0.077 -0.441,0.077 z"
   id="path123" />
					</g>
					<g
   id="g124">
						<path
   style="fill:#f5fffd"
   d="m 449.104,425.898 c -0.171,0 -0.345,-0.034 -0.511,-0.105 -8.294,-3.566 -12.061,-13.719 -11.496,-21.906 0.233,-3.368 0.934,-6.7 2.144,-10.186 l 0.177,-0.493 c 0.173,-0.473 0.338,-0.92 0.41,-1.357 0.115,-0.705 0.777,-1.196 1.487,-1.067 0.705,0.115 1.183,0.781 1.067,1.487 -0.111,0.678 -0.325,1.263 -0.532,1.828 l -0.163,0.451 c -1.133,3.267 -1.789,6.379 -2.005,9.517 -0.503,7.276 2.748,16.258 9.934,19.348 0.657,0.283 0.961,1.044 0.679,1.7 -0.212,0.49 -0.69,0.783 -1.191,0.783 z"
   id="path124" />
					</g>
					<path
   style="fill:#138f8d"
   d="m 369.158,302.325 c 0,0 -31.793,-26.976 -14.888,-34.152 17.153,-7.282 22.108,35.511 22.108,35.511 z"
   id="path125" />
					<path
   style="fill:#67c451"
   d="m 373.737,301.823 c 0,0 -12.829,-44.589 5.488,-36.096 19.222,8.913 5.58,45.981 5.58,45.981 z"
   id="path126" />
					<path
   style="fill:#67c451"
   d="m 390.564,315.2 c 0,0 -46.362,1.819 -32.548,16.543 14.497,15.452 45.408,-9.139 45.408,-9.139 z"
   id="path127" />
					<path
   style="fill:#138f8d"
   d="m 413.89,337.751 c 0,0 -46.026,-5.86 -34.832,10.943 11.747,17.633 46.293,-1.517 46.293,-1.517 z"
   id="path128" />
					<path
   style="fill:#138f8d"
   d="m 399.535,318.737 c 0,0 -2.528,-39.978 11.337,-29.413 14.55,11.088 -3.843,39.804 -3.843,39.804 z"
   id="path129" />
					<path
   style="fill:#67c451"
   d="m 366.592,299.797 c 0,0 -39.868,3.901 -27.221,15.896 13.273,12.589 38.677,-10.161 38.677,-10.161 z"
   id="path130" />
					<g
   id="g131">
						<path
   style="fill:#9de08a"
   d="m 441.655,395.443 c -1.134,0 -2.176,-0.752 -2.493,-1.897 -20.379,-73.423 -72.684,-90.847 -73.21,-91.015 -1.362,-0.432 -2.116,-1.887 -1.685,-3.249 0.432,-1.363 1.884,-2.117 3.245,-1.688 2.255,0.711 55.47,18.296 76.638,94.566 0.383,1.378 -0.423,2.805 -1.801,3.187 -0.232,0.065 -0.466,0.096 -0.694,0.096 z"
   id="path131" />
					</g>
				</g>
				<path
   style="fill:#cd4da5"
   d="m 507.55,131.336 c -0.377,-2.977 -1.912,-4.898 -5.01,-5.153 -1.539,-0.127 -3.082,0.125 -4.626,0.165 -2.288,0.06 -4.762,-0.441 -6.304,-2.133 -1.931,-2.12 -1.815,-5.345 -2.803,-8.037 -1.363,-3.714 -5.183,-6.721 -9.232,-6.397 -2.294,0.184 -4.446,1.148 -6.513,2.159 -2.068,1.011 -4.138,2.094 -6.395,2.547 -2.534,0.509 -5.229,0.175 -7.562,-0.936 -2.652,-1.263 -4.915,-3.661 -7.844,-4.318 -2.978,-0.667 -6.215,0.769 -8.573,2.487 -2.512,1.829 -4.546,4.224 -6.799,6.365 -1.203,1.142 -2.528,2.246 -4.128,2.684 -3.741,1.022 -7.581,-1.864 -11.426,-1.368 -6.031,0.778 -8.151,6.919 -9.565,12.012 -0.812,2.924 -1.417,7.186 -3.808,9.267 -0.261,0.227 -0.545,0.415 -0.841,0.575 3.098,22.314 25.857,26.69 54.035,26.69 23.194,0 46.802,-4.123 55.373,-16.37 -0.739,-0.562 -1.452,-1.161 -2.106,-1.836 -5.047,-5.206 -5.016,-11.639 -5.873,-18.403 z"
   id="path132" />
				<path
   style="fill:#e764c2"
   d="m 517.265,131.646 c -6.384,-18.707 -24.515,-36.822 -57.391,-35.591 -29.758,1.114 -51.128,14.169 -53.605,32.426 -0.653,4.81 -0.667,9.035 -0.148,12.773 0.296,-0.16 0.579,-0.348 0.841,-0.575 2.391,-2.081 2.996,-6.343 3.808,-9.267 1.414,-5.093 3.533,-11.234 9.565,-12.012 3.846,-0.496 7.686,2.389 11.426,1.368 1.6,-0.437 2.925,-1.541 4.128,-2.684 2.253,-2.141 4.287,-4.536 6.799,-6.365 2.358,-1.717 5.594,-3.154 8.573,-2.487 2.93,0.657 5.192,3.055 7.844,4.318 2.333,1.111 5.028,1.445 7.562,0.936 2.256,-0.453 4.327,-1.537 6.395,-2.547 2.068,-1.011 4.22,-1.975 6.513,-2.159 4.049,-0.324 7.868,2.683 9.232,6.397 0.988,2.692 0.872,5.917 2.803,8.037 1.542,1.692 4.016,2.193 6.304,2.133 1.544,-0.041 3.087,-0.292 4.626,-0.165 3.098,0.256 4.633,2.176 5.01,5.153 0.857,6.763 0.826,13.197 5.873,18.403 0.654,0.674 1.367,1.273 2.106,1.836 3.586,-5.123 4.557,-11.66 1.736,-19.928 z"
   id="path133" />
				<path
   style="fill:#1e2a5b"
   d="m 452.674,120.603 c -19.172,1.608 -29.173,9.255 -32.924,17.549 12.673,-2.081 23.549,-8.917 33.09,-17.558 -0.056,0.004 -0.111,0.005 -0.166,0.009 z"
   id="path134" />
				<path
   style="fill:#14192d"
   d="m 452.84,120.594 c -9.541,8.641 -20.417,15.477 -33.09,17.558 -1.132,2.502 -1.701,5.063 -1.773,7.535 17.465,-0.478 33.754,-10.657 44.218,-24.945 -3.082,-0.333 -6.219,-0.4 -9.355,-0.148 z"
   id="path135" />
				<path
   style="fill:#f79485"
   d="m 466.552,121.406 c -1.436,-0.278 -2.888,-0.506 -4.357,-0.665 -10.465,14.288 -26.754,24.467 -44.218,24.945 -0.005,0.191 -0.015,0.383 -0.015,0.573 0.029,21.001 -2.754,72.953 29.969,78.479 0,0 -3.077,20.434 0.95,21.742 8.987,2.919 32.863,6.352 51.622,-4.367 0,0 -1.67,-41.199 -1.863,-65.468 -0.067,-8.423 -0.134,-16.199 -0.192,-21.863 -0.016,-1.56 -0.032,-2.945 -0.046,-4.154 -15.788,-3.348 -29.221,-12.506 -31.85,-29.222 z"
   id="path136" />
				<path
   style="fill:#e86f5e"
   d="m 482.991,205.959 c -9.69,13.929 -21.802,18.068 -35.061,18.78 l -0.797,6.945 c 33.275,-2.966 35.858,-25.725 35.858,-25.725 z"
   id="path137" />
				<path
   style="fill:#14192d"
   d="m 473.428,123.228 c -2.221,-0.748 -4.521,-1.365 -6.876,-1.822 2.629,16.716 16.062,25.873 31.849,29.224 -0.007,-0.559 -0.014,-1.093 -0.02,-1.567 -0.031,-2.281 -0.531,-4.529 -1.42,-6.702 -9.528,-3.69 -17.975,-10.313 -23.533,-19.133 z"
   id="path138" />
				<path
   style="fill:#0f121d"
   d="m 473.428,123.228 c 5.558,8.821 14.004,15.443 23.533,19.133 -3.371,-8.237 -12.425,-15.39 -23.533,-19.133 z"
   id="path139" />
				<path
   style="opacity:0.88;fill:#dde6ff"
   d="m 410.823,165.807 c 0,0 0.136,29.35 9.592,28.903 0.318,-0.015 0.632,-0.042 0.942,-0.079 5.066,-0.609 9.072,-4.559 10.235,-9.527 0.761,-3.254 1.122,-7.321 3.857,-9.28 -3.565,-5.599 -6.77,-11.41 -9.681,-17.243 -5.061,1.883 -10.09,4.251 -14.945,7.226 z"
   id="path140" />
				<path
   style="opacity:0.88;fill:#cbdaff"
   d="m 452.529,188.643 c 2.711,1.738 6.61,3.141 10.884,2.893 5.376,-0.312 10.067,-1.455 13.906,-4.331 -8.818,-10.368 -15.95,-22.299 -20.625,-35.022 -9.573,0.646 -20.318,2.448 -30.926,6.398 2.911,5.834 6.115,11.644 9.681,17.243 0.832,-0.596 1.876,-1.005 3.228,-1.126 3.895,-0.35 6.835,9.446 13.852,13.945 z"
   id="path141" />
				<path
   style="opacity:0.88;fill:#dde6ff"
   d="m 456.694,152.183 c 4.676,12.724 11.807,24.654 20.625,35.022 1.528,-1.145 2.925,-2.556 4.171,-4.311 2.236,-3.151 3.859,-7.061 5.038,-10.975 -4.857,-6.088 -9.085,-12.745 -12.735,-19.802 -4.932,-0.286 -10.757,-0.363 -17.099,0.066 z"
   id="path142" />
				<path
   style="opacity:0.88;fill:#cbdaff"
   d="m 473.793,152.117 c 3.65,7.058 7.877,13.714 12.735,19.802 2.692,-8.934 3.061,-17.89 3.061,-17.89 0,0 -6.204,-1.355 -15.796,-1.912 z"
   id="path143" />
				<path
   style="fill:#f35555"
   d="m 443.741,204.397 c -5.815,0 -8.304,-3.082 -8.428,-3.24 -0.44,-0.564 -0.34,-1.378 0.223,-1.818 0.563,-0.437 1.369,-0.341 1.809,0.212 0.133,0.162 2.91,3.388 10.042,1.834 6.402,-1.399 8.513,-5.623 8.533,-5.665 0.312,-0.645 1.091,-0.91 1.729,-0.602 0.643,0.312 0.913,1.086 0.602,1.729 -0.107,0.22 -2.695,5.4 -10.31,7.065 -1.56,0.343 -2.957,0.485 -4.2,0.485 z"
   id="path144" />
				<path
   style="fill:#f35555"
   d="m 443.116,178.028 c -2.56,-3.72 -5.886,-4.971 -8.394,-2.528 -2.041,1.989 -3.666,5.03 -3.13,9.604 0.921,7.862 6.512,7.739 10.141,6.782 1.798,-0.474 4.004,-2.306 4.249,-4.149 0.582,-4.361 -2.866,-9.709 -2.866,-9.709 z"
   id="path145" />
				<path
   style="fill:#eaefff"
   d="m 506.986,153.24 c 0.175,-2.034 -1.248,-3.877 -3.294,-4.174 -26.949,-3.914 -46.877,-1.648 -64.4,1.384 -23.228,4.02 -31.951,10.226 -32.312,10.488 -1.723,1.255 -2.098,3.656 -0.858,5.39 0.756,1.056 1.949,1.617 3.162,1.617 0.777,0 1.563,-0.231 2.244,-0.71 0.077,-0.054 7.972,-5.477 29.089,-9.132 10.769,-1.865 30.339,-5.238 57.412,-1.948 0,-0.003 0,-0.007 0,-0.01 2.816,-1.767 6.132,-3.092 8.957,-2.905 z"
   id="path146" />
				<path
   style="fill:#e86f5e"
   d="m 510.402,154.502 c -3.163,-2.554 -8.293,-0.916 -12.373,1.643 0.058,5.664 0.544,12.079 0.611,20.502 3.824,0.24 8.196,-1.794 11.323,-5.667 4.544,-5.628 4.74,-13.005 0.439,-16.478 z"
   id="path147" />
				<path
   style="fill:#cbdaff"
   d="m 511.522,233.81 c 31.74,23.234 37.404,72.084 42.756,129.71 28.872,7.377 29.724,3.968 44.498,9.362 -7.333,-33.022 -19.453,-92.843 -46.407,-121.314 -8.984,-9.491 -25.928,-16.615 -40.847,-17.758 z"
   id="path148" />
				<path
   style="fill:#e764c2"
   d="m 442.775,231.824 c 0,0 24.127,24.793 58.451,-2.909 0,0 -6.631,87.494 -35.742,94.287 0,0 -30.728,-41.24 -31.698,-63.397 -0.97,-22.157 8.989,-27.981 8.989,-27.981 z"
   id="path149" />
				<path
   style="fill:#e764c2"
   d="m 480.897,344.944 c 0,0 -26.119,-10.213 -43.866,-8.204 -17.747,2.009 -38.783,5.927 -35.327,12.892 5.88,11.852 9.668,21.656 35.117,22.995 25.449,1.339 43.742,5.635 43.742,5.635 z"
   id="path150" />
				<path
   style="fill:#f5f7ff"
   d="m 476.152,393.668 c 0,0 87.392,30.098 115.314,11.966 6.186,-4.017 12.178,-17.523 7.31,-32.753 -1.525,-4.771 -7.354,-9.234 -12.125,-10.76 -25.746,-8.237 -72.987,-19.084 -109.517,-22.704 z"
   id="path151" />
				<path
   style="fill:#cd4da5"
   d="m 407.578,355.511 c 6.454,-0.466 14.678,-0.545 20.316,-3.991 1.012,-0.618 0.694,-2.565 -0.654,-2.416 -7.371,0.818 -14.667,1.845 -22.086,2.183 -0.862,0.039 -1.724,0.069 -2.587,0.094 0.731,1.483 1.448,2.927 2.199,4.32 0.939,-0.059 1.877,-0.122 2.812,-0.19 z"
   id="path152" />
				<path
   style="fill:#cd4da5"
   d="m 430.758,359.143 c -7.376,0.77 -14.678,1.749 -22.1,2.04 -0.138,0.005 -0.277,0.005 -0.415,0.01 1.155,1.499 2.468,2.892 4.024,4.155 6.248,-0.366 13.818,-0.585 19.13,-3.784 1.016,-0.613 0.711,-2.562 -0.639,-2.421 z"
   id="path153" />
				<path
   style="fill:#f5f7ff"
   d="m 447.746,226.346 c -12.94,-0.262 -25.929,10.11 -17.566,44.24 8.754,35.724 26.938,52.719 35.138,53.454 v -2.075 c -2.641,0 -16.463,-29.35 -17.572,-95.619 z"
   id="path154" />
				<path
   style="fill:#f5f7ff"
   d="m 517.475,244.188 c -2.292,-21.462 -17.649,-20.324 -17.649,-20.324 0,0 -10.402,58.166 -34.507,98.101 v 2.075 c 0.304,0.027 0.597,0.045 0.87,0.045 23.949,0 54.194,-52.673 51.286,-79.897 z"
   id="path155" />
				<path
   style="fill:#f5f7ff"
   d="m 362.641,281.805 c -0.735,0.781 -2.81,0.091 -3.31,-0.381 l -21.097,-19.867 c -0.501,-0.471 -0.311,-1.487 0.424,-2.268 0.735,-0.781 1.737,-1.031 2.238,-0.56 l 21.097,19.867 c 0.501,0.472 1.383,2.428 0.648,3.209 z"
   id="path156" />
				<path
   style="fill:#8c8c8c"
   d="m 346.204,260.797 v 0 c -1.395,2.417 -3.426,4.574 -5.755,6.112 v 0 l -13.582,-12.79 5.755,-6.112 z"
   id="path157" />
				<path
   style="fill:#ff6c2f"
   d="m 322.922,254.482 9.342,8.797 c 4.37,-2.254 7.838,-5.936 9.825,-10.434 l -9.342,-8.797 c -1.987,4.498 -5.455,8.18 -9.825,10.434 z"
   id="path158" />
				<path
   style="fill:#f0f4fb"
   d="m 319.927,251.662 2.995,2.82 c 4.37,-2.254 7.838,-5.936 9.825,-10.434 l -2.995,-2.82 c -1.987,4.498 -5.455,8.18 -9.825,10.434 z"
   id="path159" />
				<path
   style="fill:#ff6c2f"
   d="m 319.927,251.662 c 4.37,-2.254 7.838,-5.936 9.825,-10.434 l -22.329,-21.027 -9.825,10.434 z"
   id="path160" />
				<path
   style="fill:#f0f4fb"
   d="m 308.276,240.691 2.995,2.82 c 4.37,-2.254 7.838,-5.936 9.825,-10.434 l -2.995,-2.82 c -1.987,4.498 -5.455,8.18 -9.825,10.434 z"
   id="path161" />
				<path
   style="fill:#cd4da5"
   d="m 293.956,203.568 c 0,0 -1.239,-4.548 -6.104,-1.618 -2.935,1.767 -9.363,12.3 -13.516,19.478 0.111,1.884 0.273,3.764 0.453,5.642 4.696,-1.374 11.963,-3.891 14.95,-7.01 4.58,-4.781 4.217,-16.492 4.217,-16.492 z"
   id="path162" />
				<path
   style="fill:#e764c2"
   d="m 312.311,270.369 4.129,-5.111 -6.078,-15.84 c 0,0 1.681,-9.8 7.889,-16.217 3.128,-3.232 3.339,-8.304 0.715,-11.957 -4.325,-6.02 -11.441,-12.607 -17.778,-13.937 -10.121,-2.125 -27.767,10.426 -28.122,19.483 -0.195,4.974 7.109,24.893 13.734,41.842 8.801,2.146 16.462,3.289 25.511,1.737 z"
   id="path163" />
				<path
   style="fill:#cd4da5"
   d="m 295.627,228.796 c -1.081,1.07 0.338,3.034 1.661,2.153 6.742,-4.488 13.548,-7.877 20.732,-10.969 -1.016,-1.313 -2.152,-2.63 -3.37,-3.9 -7.125,2.938 -13.777,7.52 -19.023,12.716 z"
   id="path164" />
				<path
   style="fill:#cd4da5"
   d="m 285.745,221.698 c -1.156,1.391 0.581,3.113 1.974,1.974 6.935,-5.669 13.796,-9.605 21.359,-12.506 -1.741,-1.268 -3.531,-2.324 -5.3,-3.044 -7.008,3.245 -13.377,7.977 -18.033,13.576 z"
   id="path165" />
				<path
   style="fill:#f79485"
   d="m 286.8,268.632 c 3.335,8.531 6.492,16.295 8.44,21.037 7.049,-7.268 13.998,-15.536 17.928,-20.345 -8.835,1.441 -17.781,1.402 -26.368,-0.692 z"
   id="path166" />
				<path
   style="fill:#2f323a"
   d="m 461.491,169.574 c 0.453,3.255 -0.996,6.147 -3.237,6.459 -2.241,0.312 -4.424,-2.074 -4.878,-5.33 -0.453,-3.255 0.996,-6.147 3.237,-6.459 2.241,-0.312 4.425,2.074 4.878,5.33 z"
   id="path167" />
				<path
   style="fill:#2f323a"
   d="m 429.414,174.728 c 0.424,3.044 -0.931,5.749 -3.027,6.04 -2.095,0.292 -4.138,-1.94 -4.561,-4.984 -0.424,-3.044 0.932,-5.749 3.027,-6.04 2.095,-0.292 4.137,1.939 4.561,4.984 z"
   id="path168" />
			</g>
			<g
   id="jar">
				<polygon
   style="opacity:0.7;fill:#f0f4fb"
   points="297.146,367.203 330.204,367.203 328.004,349.089 299.346,349.089 "
   id="polygon168" />
				<polygon
   style="fill:#328ab1"
   points="338.55,435.913 330.204,367.203 297.146,367.203 288.8,435.913 "
   id="polygon169" />
				<path
   style="fill:#67bcef"
   d="m 330.204,367.203 h -33.058 l -5.245,43.183 c -0.777,6.4 4.218,12.039 10.665,12.039 h 22.218 c 6.447,0 11.443,-5.639 10.665,-12.039 z"
   id="path169" />
				<circle
   style="fill:#43a4de"
   cx="305.28"
   cy="403.22699"
   r="5.0510001"
   id="circle169" />
				<path
   style="fill:#cbdaff"
   d="m 323.378,400.009 c 0.125,2.175 -1.606,3.939 -4.088,4.088 -2.254,0.135 -4.088,-1.83 -4.088,-4.088 0,-2.258 1.83,-4.088 4.088,-4.088 2.258,0 3.959,1.834 4.088,4.088 z"
   id="path170" />
				<path
   style="fill:#43a4de"
   d="m 322.568,386.266 c 0,1.646 -1.335,2.981 -2.981,2.981 -1.646,0 -2.981,-1.335 -2.981,-2.981 0,-1.646 1.335,-2.981 2.981,-2.981 1.646,0 2.981,1.334 2.981,2.981 z"
   id="path171" />
				<path
   style="fill:#cbdaff"
   d="m 311.615,390.568 c 0,1.646 -1.335,2.981 -2.981,2.981 -1.646,0 -2.981,-1.335 -2.981,-2.981 0,-1.646 1.335,-2.981 2.981,-2.981 1.647,0 2.981,1.335 2.981,2.981 z"
   id="path172" />
				<path
   style="fill:#67bcef"
   d="m 329.524,352.188 h -31.699 c -1.637,0 -2.965,-1.327 -2.965,-2.965 v 0 c 0,-1.637 1.327,-2.965 2.965,-2.965 h 31.699 c 1.637,0 2.965,1.327 2.965,2.965 v 0 c 0,1.637 -1.327,2.965 -2.965,2.965 z"
   id="path173" />
			</g>
			<g
   id="misroscope">
				<rect
   x="594.052"
   y="367.61099"
   style="fill:#328ab1"
   width="16.302999"
   height="24.288"
   id="rect173" />
				<path
   style="fill:#afafaf"
   d="m 583.253,350.762 v 0 c -3.06,-0.951 -4.77,-4.203 -3.819,-7.263 l 5.268,-16.95 c 0.951,-3.06 4.203,-4.77 7.263,-3.819 v 0 c 3.06,0.951 4.77,4.203 3.819,7.263 l -5.268,16.95 c -0.951,3.06 -4.203,4.77 -7.263,3.819 z"
   id="path174" />
				<path
   style="fill:#afafaf"
   d="m 621.046,350.762 v 0 c 3.06,-0.951 4.77,-4.203 3.819,-7.263 l -5.268,-16.95 c -0.951,-3.06 -4.203,-4.77 -7.263,-3.819 v 0 c -3.06,0.951 -4.77,4.203 -3.819,7.263 l 5.268,16.95 c 0.951,3.06 4.202,4.77 7.263,3.819 z"
   id="path175" />
				<path
   style="fill:#8c8c8c"
   d="m 602.068,353.426 v 0 c 3.205,0.029 5.826,-2.544 5.856,-5.749 l 0.163,-17.749 c 0.029,-3.205 -2.544,-5.826 -5.749,-5.856 v 0 c -3.205,-0.029 -5.826,2.544 -5.856,5.749 l -0.163,17.749 c -0.029,3.205 2.544,5.827 5.749,5.856 z"
   id="path176" />
				
					<rect
   x="619.79401"
   y="247.493"
   transform="matrix(-0.8605,-0.5094,0.5094,-0.8605,1027.7152,828.2265)"
   style="fill:#328ab1"
   width="14.874"
   height="51.880001"
   id="rect176" />
				<path
   style="fill:#ffc32f"
   d="m 632.4,249.23 13.561,8.027 c 1.935,1.146 4.433,0.505 5.579,-1.43 v 0 c 1.146,-1.936 0.505,-4.433 -1.43,-5.579 l -13.561,-8.027 c -1.936,-1.146 -4.433,-0.505 -5.579,1.43 v 0 c -1.146,1.935 -0.505,4.433 1.43,5.579 z"
   id="path177" />
				<path
   style="fill:#ff6c2f"
   d="m 631.441,307.066 c 1.938,14.184 -8.77,22.46 -24.179,24.566 -15.409,2.106 -29.684,-2.757 -31.622,-16.941 -1.938,-14.184 8.936,-23.753 24.345,-25.859 15.409,-2.105 29.518,4.05 31.456,18.234 z"
   id="path178" />
				<rect
   x="574.76099"
   y="392.80499"
   style="fill:#328ab1"
   width="51.603001"
   height="17.913"
   id="rect178" />
				<path
   style="fill:#afafaf"
   d="m 650.625,374.147 h -75.584 c -2.358,0 -4.27,-1.912 -4.27,-4.27 v 0 c 0,-2.358 1.912,-4.27 4.27,-4.27 h 75.584 c 2.358,0 4.27,1.912 4.27,4.27 v 0 c 10e-4,2.358 -1.911,4.27 -4.27,4.27 z"
   id="path179" />
				<path
   style="fill:#afafaf"
   d="m 637.601,396.59 h -62.56 c -2.358,0 -4.27,-1.912 -4.27,-4.27 v 0 c 0,-2.358 1.912,-4.27 4.27,-4.27 h 62.56 c 2.358,0 4.27,1.912 4.27,4.27 v 0 c 0,2.359 -1.912,4.27 -4.27,4.27 z"
   id="path180" />
				<path
   style="fill:#ff6c2f"
   d="m 664.378,435.913 h -119.9 v -6.665 c 0,-12.499 10.133,-22.632 22.632,-22.632 h 74.637 c 12.499,0 22.632,10.133 22.632,22.632 v 6.665 z"
   id="path181" />
				<path
   style="fill:#ffc32f"
   d="m 588.13,420.186 c 0,3.155 -7.111,5.712 -15.884,5.712 -8.772,0 -15.884,-2.557 -15.884,-5.712 0,-3.155 7.111,-5.712 15.884,-5.712 8.773,0 15.884,2.558 15.884,5.712 z"
   id="path182" />
				<path
   style="fill:#ffc32f"
   d="m 606.009,420.186 c 0,2.308 -1.931,4.179 -4.312,4.179 -2.382,0 -4.312,-1.871 -4.312,-4.179 0,-2.308 1.931,-4.179 4.312,-4.179 2.381,0 4.312,1.871 4.312,4.179 z"
   id="path183" />
				<path
   style="fill:#ffc32f"
   d="m 669.513,372.133 c -7.029,13.256 -19.547,25.657 -40.039,34.485 h -27.806 c 20.492,-7.482 33.01,-18.006 40.052,-29.243 16.285,-26.032 -0.569,-54.686 -33.269,-58.32 -12.341,-1.371 -25.835,-2.02 -31.895,-1.599 -2.436,0.169 -4.604,-4.515 0.931,-7.344 13.984,-7.148 30.586,-9.567 46.333,-8.279 4.642,0.38 9.242,0.996 13.298,1.97 33.01,7.929 48.692,37.638 32.395,68.33 z"
   id="path184" />
				
					<circle
   transform="matrix(0.7071,-0.7071,0.7071,0.7071,-69.1932,572.7059)"
   style="fill:#328ab1"
   cx="656.72101"
   cy="369.87701"
   id="ellipse184"
   r="16.302999" />
				
					<circle
   transform="matrix(0.1423,-0.9898,0.9898,0.1423,197.1428,967.2699)"
   style="fill:#e1e8fb"
   cx="656.72101"
   cy="369.87701"
   id="ellipse185"
   r="9.8660002" />
			</g>
			<g
   id="table">
				<polygon
   style="fill:#d9e4ff"
   points="149.884,451.118 282.903,451.118 298.438,435.583 165.419,435.583 "
   id="polygon185" />
				<polygon
   style="fill:#cbdaff"
   points="312.868,451.118 328.404,435.583 298.438,435.583 282.903,451.118 "
   id="polygon186" />
				<polygon
   style="fill:#d9e4ff"
   points="439.31,451.118 483.162,451.118 498.697,435.583 454.845,435.583 "
   id="polygon187" />
				<path
   style="fill:#c2d3ff"
   d="m 684.023,435.583 h -39.151 l -15.536,15.536 h 54.687 c 4.29,0 7.768,-3.478 7.768,-7.768 0,-4.29 -3.478,-7.768 -7.768,-7.768 z"
   id="path187" />
				<polygon
   style="fill:#c2d3ff"
   points="543.824,451.118 559.36,435.583 498.697,435.583 483.162,451.118 "
   id="polygon188" />
				<polygon
   style="fill:#cbdaff"
   points="543.824,451.118 629.337,451.118 644.872,435.583 559.36,435.583 "
   id="polygon189" />
				<polygon
   style="fill:#c2d3ff"
   points="312.868,451.118 439.31,451.118 454.845,435.583 328.404,435.583 "
   id="polygon190" />
				<path
   style="fill:#c2d3ff"
   d="m 65.258,435.583 c -4.29,0 -7.768,3.478 -7.768,7.768 0,4.29 3.478,7.768 7.768,7.768 h 84.626 l 15.535,-15.536 z"
   id="path190" />
			</g>
		</g>
	</g>
</g></g></g></g></svg>
