<?xml version="1.0" encoding="UTF-8" standalone="no"?>
<!-- Created with Inkscape (http://www.inkscape.org/) -->

<svg
   width="158.75002mm"
   height="119.0625mm"
   viewBox="0 0 158.75002 119.0625"
   version="1.1"
   id="svg1"
   xml:space="preserve"
   xmlns:xlink="http://www.w3.org/1999/xlink"
   xmlns="http://www.w3.org/2000/svg"
   xmlns:svg="http://www.w3.org/2000/svg"><defs
     id="defs1"><linearGradient
       id="linearGradient2"><stop
         style="stop-color:#16423c;stop-opacity:1;"
         offset="0"
         id="stop5" /><stop
         style="stop-color:#ffffff;stop-opacity:0;"
         offset="1"
         id="stop6" /></linearGradient><linearGradient
       xlink:href="#linearGradient2"
       id="linearGradient6"
       x1="693.11884"
       y1="437.30667"
       x2="10.953065"
       y2="27.263397"
       gradientUnits="userSpaceOnUse" /></defs><g
     id="layer1"
     transform="translate(-136.1137,-64.501788)"><g
       id="g18"
       transform="matrix(0.26458333,0,0,0.26458333,-1.2123438,78.741695)"><g
         id="g2"
         transform="translate(519.02756,-53.820102)"><rect
           style="fill:url(#linearGradient6)"
           width="600"
           height="450"
           id="rect2"
           x="0"
           y="0" /><g
           id="g132">
	<g
   id="g21">
		<path
   style="fill:#42e8e0"
   d="m 290.091,263.01 c -0.631,0 -1.319,-0.204 -2.022,-0.609 l -12.948,-7.476 c -0.253,-0.146 -0.339,-0.47 -0.193,-0.723 0.146,-0.252 0.47,-0.339 0.722,-0.193 l 12.948,7.476 c 0.879,0.508 1.68,0.607 2.253,0.275 0.573,-0.33 0.888,-1.072 0.888,-2.089 v -3.122 c 0,-1.41 0.503,-2.478 1.417,-3.004 0.913,-0.528 2.088,-0.43 3.309,0.276 l 2.705,1.56 c 0.252,0.146 0.339,0.47 0.193,0.722 -0.145,0.254 -0.467,0.342 -0.722,0.194 l -2.705,-1.56 c -0.88,-0.51 -1.68,-0.608 -2.253,-0.276 -0.572,0.33 -0.888,1.072 -0.888,2.089 v 3.122 c 0,1.41 -0.503,2.477 -1.416,3.004 -0.388,0.223 -0.823,0.334 -1.288,0.334 z"
   id="path2" />
		<path
   style="fill:#42e8e0"
   d="m 285.055,265.907 c -0.631,0 -1.319,-0.205 -2.022,-0.611 l -12.947,-7.474 c -0.253,-0.147 -0.339,-0.47 -0.193,-0.722 0.146,-0.254 0.469,-0.339 0.722,-0.194 l 12.947,7.475 c 0.88,0.511 1.68,0.608 2.253,0.276 0.573,-0.331 0.888,-1.072 0.888,-2.089 v -3.123 c 0,-1.409 0.503,-2.476 1.416,-3.003 0.914,-0.528 2.089,-0.429 3.31,0.274 l 2.704,1.562 c 0.253,0.146 0.339,0.47 0.193,0.723 -0.146,0.252 -0.47,0.339 -0.722,0.193 l -2.704,-1.562 c -0.882,-0.509 -1.68,-0.606 -2.253,-0.275 -0.572,0.33 -0.888,1.072 -0.888,2.088 v 3.123 c 0,1.41 -0.503,2.477 -1.417,3.004 -0.387,0.224 -0.822,0.335 -1.287,0.335 z"
   id="path3" />
		<path
   style="fill:#42e8e0"
   d="m 280.019,268.804 c -0.631,0 -1.319,-0.204 -2.022,-0.609 l -12.948,-7.476 c -0.253,-0.146 -0.339,-0.47 -0.193,-0.723 0.146,-0.253 0.469,-0.338 0.722,-0.193 l 12.948,7.476 c 0.881,0.51 1.68,0.607 2.253,0.275 0.572,-0.33 0.888,-1.072 0.888,-2.089 v -3.122 c 0,-1.41 0.503,-2.477 1.417,-3.004 0.913,-0.526 2.088,-0.429 3.31,0.276 l 2.704,1.559 c 0.252,0.147 0.339,0.47 0.193,0.722 -0.145,0.254 -0.469,0.34 -0.722,0.194 l -2.704,-1.561 c -0.88,-0.51 -1.681,-0.608 -2.253,-0.276 -0.573,0.33 -0.888,1.072 -0.888,2.089 v 3.122 c 0,1.41 -0.503,2.477 -1.416,3.004 -0.389,0.225 -0.824,0.336 -1.289,0.336 z"
   id="path4" />
		<path
   style="fill:#42e8e0"
   d="m 274.983,271.701 c -0.631,0 -1.319,-0.205 -2.022,-0.611 l -12.948,-7.474 c -0.253,-0.146 -0.339,-0.47 -0.193,-0.722 0.146,-0.253 0.469,-0.34 0.722,-0.194 l 12.948,7.475 c 0.881,0.51 1.68,0.608 2.253,0.276 0.573,-0.331 0.888,-1.072 0.888,-2.089 v -3.123 c 0,-1.409 0.503,-2.477 1.416,-3.003 0.914,-0.528 2.089,-0.43 3.31,0.274 l 2.704,1.562 c 0.253,0.146 0.339,0.47 0.193,0.723 -0.146,0.252 -0.469,0.339 -0.722,0.193 l -2.705,-1.561 c -0.879,-0.508 -1.681,-0.606 -2.253,-0.275 -0.572,0.33 -0.888,1.071 -0.888,2.088 v 3.123 c 0,1.41 -0.503,2.477 -1.417,3.004 -0.386,0.223 -0.821,0.334 -1.286,0.334 z"
   id="path5" />
		<path
   style="fill:#42e8e0"
   d="m 269.947,274.598 c -0.631,0 -1.319,-0.204 -2.022,-0.609 l -12.947,-7.476 c -0.253,-0.146 -0.339,-0.47 -0.193,-0.723 0.146,-0.252 0.471,-0.338 0.722,-0.193 l 12.947,7.476 c 0.88,0.509 1.681,0.607 2.253,0.275 0.573,-0.33 0.888,-1.072 0.888,-2.089 v -3.122 c 0,-1.41 0.503,-2.477 1.416,-3.004 0.914,-0.526 2.089,-0.429 3.31,0.276 l 2.704,1.56 c 0.253,0.147 0.339,0.47 0.193,0.722 -0.146,0.253 -0.468,0.34 -0.722,0.194 l -2.704,-1.561 c -0.88,-0.51 -1.682,-0.608 -2.253,-0.276 -0.573,0.33 -0.888,1.072 -0.888,2.089 v 3.122 c 0,1.41 -0.503,2.477 -1.416,3.004 -0.388,0.224 -0.823,0.335 -1.288,0.335 z"
   id="path6" />
		<path
   style="fill:#42e8e0"
   d="m 264.911,277.494 c -0.631,0 -1.319,-0.204 -2.022,-0.609 l -12.948,-7.476 c -0.253,-0.146 -0.339,-0.47 -0.193,-0.723 0.146,-0.252 0.471,-0.338 0.722,-0.193 l 12.948,7.476 c 0.879,0.508 1.681,0.606 2.253,0.275 0.572,-0.33 0.888,-1.071 0.888,-2.088 v -3.123 c 0,-1.409 0.503,-2.475 1.416,-3.003 0.915,-0.528 2.089,-0.429 3.31,0.274 l 2.704,1.562 c 0.253,0.146 0.339,0.47 0.193,0.723 -0.146,0.252 -0.471,0.338 -0.722,0.193 l -2.704,-1.562 c -0.882,-0.509 -1.68,-0.607 -2.254,-0.275 -0.572,0.33 -0.888,1.072 -0.888,2.088 v 3.123 c 0,1.409 -0.503,2.477 -1.416,3.003 -0.387,0.225 -0.822,0.335 -1.287,0.335 z"
   id="path7" />
		<path
   style="fill:#42e8e0"
   d="m 259.875,280.391 c -0.631,0 -1.319,-0.204 -2.022,-0.609 l -12.948,-7.476 c -0.253,-0.146 -0.339,-0.47 -0.193,-0.723 0.146,-0.252 0.471,-0.339 0.722,-0.193 l 12.948,7.476 c 0.879,0.509 1.68,0.607 2.253,0.275 0.573,-0.33 0.888,-1.072 0.888,-2.089 v -3.122 c 0,-1.41 0.503,-2.477 1.416,-3.004 0.914,-0.528 2.09,-0.43 3.309,0.274 l 2.705,1.562 c 0.253,0.146 0.339,0.47 0.193,0.723 -0.146,0.252 -0.47,0.339 -0.722,0.193 l -2.705,-1.562 c -0.88,-0.508 -1.68,-0.606 -2.253,-0.275 -0.572,0.33 -0.888,1.072 -0.888,2.089 v 3.122 c 0,1.41 -0.503,2.477 -1.416,3.004 -0.387,0.225 -0.822,0.335 -1.287,0.335 z"
   id="path8" />
		<path
   style="fill:#42e8e0"
   d="m 254.839,283.288 c -0.631,10e-4 -1.319,-0.204 -2.022,-0.609 l -12.947,-7.476 c -0.253,-0.147 -0.339,-0.47 -0.193,-0.723 0.145,-0.252 0.47,-0.339 0.722,-0.193 l 12.947,7.476 c 0.879,0.508 1.68,0.605 2.253,0.275 0.572,-0.33 0.888,-1.072 0.888,-2.088 v -3.123 c 0,-1.409 0.503,-2.476 1.416,-3.003 0.915,-0.528 2.09,-0.43 3.31,0.274 l 2.704,1.561 c 0.253,0.146 0.339,0.47 0.193,0.723 -0.146,0.252 -0.47,0.338 -0.722,0.193 l -2.704,-1.561 c -0.882,-0.51 -1.681,-0.607 -2.253,-0.275 -0.572,0.33 -0.888,1.072 -0.888,2.088 v 3.123 c 0,1.409 -0.503,2.476 -1.416,3.003 -0.388,0.225 -0.823,0.335 -1.288,0.335 z"
   id="path9" />
		<path
   style="fill:#42e8e0"
   d="m 249.803,286.185 c -0.631,0 -1.319,-0.204 -2.022,-0.609 L 234.833,278.1 c -0.253,-0.147 -0.339,-0.47 -0.193,-0.723 0.146,-0.252 0.47,-0.339 0.722,-0.193 l 12.948,7.476 c 0.881,0.51 1.681,0.607 2.253,0.275 0.572,-0.33 0.888,-1.072 0.888,-2.089 v -3.122 c 0,-1.41 0.503,-2.477 1.416,-3.004 0.914,-0.528 2.089,-0.429 3.31,0.275 l 2.704,1.561 c 0.253,0.147 0.339,0.47 0.193,0.723 -0.146,0.252 -0.47,0.338 -0.722,0.193 l -2.704,-1.561 c -0.879,-0.508 -1.68,-0.607 -2.253,-0.275 -0.573,0.33 -0.888,1.072 -0.888,2.089 v 3.122 c 0,1.41 -0.503,2.477 -1.416,3.004 -0.388,0.224 -0.822,0.334 -1.288,0.334 z"
   id="path10" />
		<path
   style="fill:#42e8e0"
   d="m 244.767,289.082 c -0.631,0.001 -1.319,-0.204 -2.022,-0.609 l -12.948,-7.476 c -0.253,-0.146 -0.339,-0.47 -0.193,-0.723 0.145,-0.252 0.47,-0.339 0.722,-0.193 l 12.948,7.476 c 0.879,0.508 1.679,0.605 2.254,0.275 0.572,-0.33 0.888,-1.072 0.888,-2.088 v -3.123 c 0,-1.409 0.503,-2.477 1.416,-3.003 0.913,-0.529 2.088,-0.429 3.309,0.274 l 2.705,1.561 c 0.253,0.147 0.339,0.47 0.193,0.723 -0.146,0.252 -0.47,0.338 -0.722,0.193 l -2.705,-1.562 c -0.88,-0.509 -1.681,-0.606 -2.253,-0.275 -0.572,0.33 -0.888,1.071 -0.888,2.088 v 3.123 c 0,1.409 -0.503,2.476 -1.416,3.003 -0.388,0.225 -0.823,0.336 -1.288,0.336 z"
   id="path11" />
		<path
   style="fill:#42e8e0"
   d="m 239.731,291.979 c -0.631,0 -1.319,-0.205 -2.022,-0.611 l -12.947,-7.474 c -0.253,-0.147 -0.339,-0.47 -0.193,-0.722 0.146,-0.253 0.47,-0.34 0.722,-0.194 l 12.947,7.475 c 0.88,0.51 1.682,0.608 2.253,0.276 0.573,-0.33 0.888,-1.072 0.888,-2.089 v -3.122 c 0,-1.41 0.503,-2.477 1.416,-3.004 0.914,-0.529 2.089,-0.43 3.31,0.274 l 2.704,1.561 c 0.253,0.146 0.339,0.47 0.193,0.723 -0.146,0.253 -0.47,0.338 -0.722,0.193 l -2.704,-1.561 c -0.879,-0.508 -1.681,-0.606 -2.253,-0.275 -0.573,0.33 -0.888,1.072 -0.888,2.089 v 3.122 c 0,1.41 -0.503,2.477 -1.416,3.004 -0.388,0.224 -0.822,0.335 -1.288,0.335 z"
   id="path12" />
		<path
   style="fill:#42e8e0"
   d="m 234.695,294.876 c -0.631,0 -1.319,-0.204 -2.022,-0.609 l -12.948,-7.475 c -0.253,-0.146 -0.339,-0.47 -0.193,-0.723 0.146,-0.252 0.47,-0.339 0.722,-0.193 l 12.948,7.476 c 0.88,0.508 1.681,0.607 2.253,0.275 0.572,-0.33 0.888,-1.071 0.888,-2.088 v -3.123 c 0,-1.41 0.503,-2.477 1.416,-3.004 0.914,-0.527 2.089,-0.429 3.31,0.276 l 2.704,1.561 c 0.253,0.147 0.339,0.47 0.193,0.723 -0.146,0.252 -0.47,0.339 -0.722,0.193 l -2.704,-1.562 c -0.88,-0.51 -1.681,-0.608 -2.253,-0.276 -0.573,0.331 -0.888,1.072 -0.888,2.089 v 3.123 c 0,1.409 -0.503,2.477 -1.416,3.003 -0.387,0.224 -0.822,0.334 -1.288,0.334 z"
   id="path13" />
		<path
   style="fill:#42e8e0"
   d="m 229.66,297.773 c -0.631,0 -1.319,-0.205 -2.023,-0.611 l -12.948,-7.474 c -0.253,-0.146 -0.339,-0.47 -0.193,-0.722 0.146,-0.254 0.47,-0.339 0.722,-0.194 l 12.948,7.475 c 0.88,0.51 1.682,0.607 2.253,0.276 0.573,-0.33 0.888,-1.072 0.888,-2.089 v -3.122 c 0,-1.41 0.503,-2.477 1.416,-3.004 0.914,-0.529 2.089,-0.429 3.309,0.274 l 2.705,1.562 c 0.253,0.146 0.339,0.47 0.193,0.723 -0.146,0.252 -0.47,0.339 -0.722,0.193 l -2.705,-1.561 c -0.88,-0.509 -1.679,-0.605 -2.253,-0.275 -0.572,0.33 -0.888,1.072 -0.888,2.089 v 3.122 c 0,1.41 -0.503,2.477 -1.417,3.004 -0.385,0.223 -0.82,0.334 -1.285,0.334 z"
   id="path14" />
		<path
   style="fill:#42e8e0"
   d="m 224.623,300.67 c -0.631,0 -1.319,-0.204 -2.022,-0.609 l -12.947,-7.476 c -0.253,-0.147 -0.339,-0.47 -0.193,-0.723 0.146,-0.253 0.47,-0.338 0.722,-0.193 l 12.947,7.476 c 0.879,0.508 1.68,0.607 2.253,0.275 0.573,-0.33 0.888,-1.072 0.888,-2.089 v -3.122 c 0,-1.41 0.503,-2.477 1.417,-3.004 0.913,-0.526 2.088,-0.429 3.31,0.276 l 2.704,1.56 c 0.252,0.146 0.339,0.47 0.193,0.722 -0.146,0.253 -0.469,0.34 -0.722,0.194 l -2.704,-1.561 c -0.881,-0.51 -1.681,-0.608 -2.253,-0.276 -0.573,0.33 -0.888,1.072 -0.888,2.089 v 3.122 c 0,1.41 -0.503,2.477 -1.416,3.004 -0.389,0.224 -0.824,0.335 -1.289,0.335 z"
   id="path15" />
		<path
   style="fill:#42e8e0"
   d="m 219.588,303.567 c -0.631,0 -1.319,-0.205 -2.022,-0.611 l -12.948,-7.474 c -0.253,-0.147 -0.339,-0.47 -0.193,-0.722 0.145,-0.254 0.47,-0.339 0.722,-0.194 l 12.948,7.475 c 0.88,0.51 1.68,0.607 2.253,0.276 0.572,-0.33 0.888,-1.072 0.888,-2.089 v -3.122 c 0,-1.41 0.503,-2.477 1.416,-3.004 0.914,-0.529 2.089,-0.429 3.31,0.274 l 2.704,1.561 c 0.253,0.147 0.339,0.47 0.193,0.723 -0.146,0.252 -0.47,0.339 -0.722,0.193 l -2.704,-1.562 c -0.879,-0.508 -1.68,-0.606 -2.253,-0.275 -0.573,0.33 -0.888,1.072 -0.888,2.089 v 3.122 c 0,1.41 -0.503,2.478 -1.417,3.004 -0.388,0.225 -0.822,0.336 -1.287,0.336 z"
   id="path16" />
		<path
   style="fill:#42e8e0"
   d="m 214.551,306.464 c -0.631,0 -1.319,-0.204 -2.022,-0.609 l -12.948,-7.476 c -0.253,-0.146 -0.339,-0.47 -0.193,-0.723 0.145,-0.252 0.47,-0.338 0.722,-0.193 l 12.948,7.476 c 0.879,0.508 1.681,0.607 2.253,0.275 0.573,-0.33 0.888,-1.072 0.888,-2.089 v -3.122 c 0,-1.41 0.503,-2.478 1.417,-3.004 0.913,-0.528 2.088,-0.43 3.309,0.276 l 2.704,1.56 c 0.252,0.146 0.339,0.47 0.193,0.722 -0.145,0.253 -0.469,0.34 -0.722,0.194 l -2.704,-1.56 c -0.881,-0.51 -1.681,-0.608 -2.253,-0.276 -0.572,0.33 -0.888,1.072 -0.888,2.089 v 3.122 c 0,1.41 -0.503,2.477 -1.416,3.004 -0.387,0.223 -0.822,0.334 -1.288,0.334 z"
   id="path17" />
		<path
   style="fill:#42e8e0"
   d="m 209.515,309.361 c -0.631,0 -1.319,-0.205 -2.022,-0.611 l -12.947,-7.474 c -0.253,-0.147 -0.339,-0.47 -0.193,-0.722 0.146,-0.254 0.471,-0.34 0.722,-0.194 l 12.947,7.475 c 0.88,0.51 1.68,0.607 2.253,0.276 0.573,-0.331 0.888,-1.072 0.888,-2.089 v -3.123 c 0,-1.409 0.503,-2.477 1.416,-3.003 0.913,-0.528 2.089,-0.429 3.31,0.274 l 2.705,1.562 c 0.253,0.146 0.339,0.47 0.193,0.723 -0.146,0.252 -0.471,0.339 -0.722,0.193 l -2.705,-1.561 c -0.88,-0.508 -1.68,-0.607 -2.253,-0.275 -0.572,0.33 -0.888,1.071 -0.888,2.088 v 3.123 c 0,1.41 -0.503,2.477 -1.416,3.004 -0.388,0.223 -0.823,0.334 -1.288,0.334 z"
   id="path18" />
		<path
   style="fill:#42e8e0"
   d="m 204.479,312.258 c -0.631,0 -1.319,-0.204 -2.022,-0.609 l -12.947,-7.476 c -0.253,-0.146 -0.339,-0.47 -0.193,-0.723 0.146,-0.252 0.471,-0.339 0.722,-0.193 l 12.947,7.476 c 0.88,0.508 1.68,0.607 2.253,0.275 0.573,-0.33 0.888,-1.072 0.888,-2.089 v -3.122 c 0,-1.41 0.503,-2.477 1.417,-3.004 0.913,-0.526 2.088,-0.429 3.309,0.276 l 2.704,1.559 c 0.253,0.147 0.339,0.47 0.193,0.722 -0.146,0.254 -0.469,0.34 -0.722,0.194 l -2.704,-1.561 c -0.881,-0.51 -1.681,-0.607 -2.253,-0.276 -0.573,0.33 -0.888,1.072 -0.888,2.089 v 3.122 c 0,1.41 -0.503,2.477 -1.416,3.004 -0.388,0.225 -0.823,0.336 -1.288,0.336 z"
   id="path19" />
		<path
   style="fill:#42e8e0"
   d="m 199.443,315.154 c -0.631,0 -1.319,-0.204 -2.022,-0.609 l -12.948,-7.476 c -0.253,-0.147 -0.339,-0.47 -0.193,-0.723 0.146,-0.252 0.469,-0.338 0.722,-0.193 l 12.948,7.475 c 0.88,0.509 1.68,0.608 2.253,0.275 0.572,-0.33 0.888,-1.071 0.888,-2.088 v -3.123 c 0,-1.409 0.503,-2.476 1.416,-3.003 0.914,-0.528 2.089,-0.43 3.31,0.274 l 2.704,1.562 c 0.253,0.146 0.339,0.47 0.193,0.723 -0.146,0.252 -0.471,0.338 -0.722,0.193 l -2.704,-1.561 c -0.881,-0.51 -1.681,-0.607 -2.253,-0.275 -0.572,0.33 -0.888,1.072 -0.888,2.088 v 3.123 c 0,1.409 -0.503,2.477 -1.416,3.003 -0.387,0.225 -0.822,0.335 -1.288,0.335 z"
   id="path20" />
		<path
   style="fill:#42e8e0"
   d="m 194.407,318.052 c -0.631,0 -1.319,-0.204 -2.022,-0.609 l -12.948,-7.476 c -0.253,-0.146 -0.339,-0.47 -0.193,-0.723 0.146,-0.252 0.469,-0.339 0.722,-0.193 l 12.948,7.476 c 0.88,0.508 1.681,0.606 2.253,0.275 0.573,-0.33 0.888,-1.072 0.888,-2.089 v -3.122 c 0,-1.41 0.503,-2.477 1.416,-3.004 0.914,-0.528 2.089,-0.43 3.31,0.274 l 2.705,1.561 c 0.253,0.147 0.339,0.47 0.193,0.723 -0.145,0.252 -0.47,0.338 -0.722,0.193 l -2.704,-1.562 c -0.88,-0.509 -1.679,-0.605 -2.253,-0.275 -0.572,0.33 -0.888,1.072 -0.888,2.089 v 3.122 c 0,1.41 -0.503,2.477 -1.416,3.004 -0.388,0.225 -0.823,0.336 -1.289,0.336 z"
   id="path21" />
	</g>
	<g
   id="g41">
		<path
   style="fill:#42e8e0"
   d="m 310.726,263.246 c -0.466,0 -0.9,-0.11 -1.288,-0.335 -0.913,-0.527 -1.416,-1.594 -1.416,-3.003 v -3.123 c 0,-1.016 -0.315,-1.758 -0.888,-2.088 -0.572,-0.332 -1.374,-0.233 -2.254,0.275 l -2.703,1.561 c -0.257,0.146 -0.576,0.057 -0.723,-0.193 -0.146,-0.253 -0.059,-0.576 0.193,-0.723 l 2.704,-1.561 c 1.223,-0.704 2.398,-0.803 3.311,-0.274 0.913,0.527 1.416,1.594 1.416,3.003 v 3.123 c 0,1.016 0.315,1.758 0.888,2.088 0.572,0.331 1.372,0.232 2.254,-0.275 l 12.946,-7.475 c 0.257,-0.147 0.575,-0.058 0.723,0.193 0.145,0.253 0.059,0.576 -0.193,0.723 l -12.947,7.476 c -0.704,0.404 -1.393,0.608 -2.023,0.608 z"
   id="path22" />
		<path
   style="fill:#42e8e0"
   d="m 315.761,266.143 c -0.465,0 -0.899,-0.111 -1.287,-0.335 -0.913,-0.527 -1.416,-1.594 -1.416,-3.004 v -3.122 c 0,-1.017 -0.315,-1.759 -0.888,-2.089 -0.575,-0.332 -1.374,-0.233 -2.253,0.275 l -2.704,1.562 c -0.258,0.145 -0.576,0.057 -0.723,-0.193 -0.146,-0.253 -0.059,-0.576 0.193,-0.723 l 2.704,-1.561 c 1.221,-0.702 2.396,-0.804 3.31,-0.274 0.913,0.527 1.416,1.594 1.416,3.004 v 3.122 c 0,1.017 0.315,1.759 0.888,2.089 0.57,0.33 1.371,0.232 2.253,-0.275 l 12.948,-7.476 c 0.252,-0.146 0.574,-0.06 0.722,0.194 0.145,0.252 0.059,0.575 -0.194,0.722 l -12.947,7.475 c -0.703,0.404 -1.39,0.609 -2.022,0.609 z"
   id="path23" />
		<path
   style="fill:#42e8e0"
   d="m 320.797,269.04 c -0.465,0 -0.899,-0.11 -1.287,-0.334 -0.913,-0.527 -1.416,-1.595 -1.416,-3.004 v -3.123 c 0,-1.016 -0.315,-1.758 -0.888,-2.088 -0.572,-0.332 -1.374,-0.233 -2.253,0.275 l -2.704,1.562 c -0.258,0.146 -0.577,0.058 -0.723,-0.193 -0.146,-0.253 -0.059,-0.576 0.193,-0.723 l 2.704,-1.562 c 1.222,-0.704 2.396,-0.804 3.311,-0.274 0.913,0.527 1.416,1.594 1.416,3.003 v 3.123 c 0,1.017 0.315,1.758 0.888,2.088 0.571,0.33 1.372,0.233 2.252,-0.275 l 12.948,-7.476 c 0.256,-0.148 0.575,-0.058 0.723,0.193 0.145,0.253 0.059,0.576 -0.193,0.723 l -12.948,7.476 c -0.704,0.405 -1.391,0.609 -2.023,0.609 z"
   id="path24" />
		<path
   style="fill:#42e8e0"
   d="m 325.833,271.937 c -0.466,0 -0.9,-0.111 -1.287,-0.335 -0.914,-0.527 -1.417,-1.594 -1.417,-3.004 v -3.122 c 0,-1.017 -0.315,-1.759 -0.888,-2.089 -0.572,-0.332 -1.373,-0.233 -2.252,0.275 l -2.706,1.562 c -0.252,0.145 -0.574,0.06 -0.722,-0.194 -0.146,-0.252 -0.059,-0.575 0.194,-0.722 l 2.705,-1.562 c 1.221,-0.704 2.396,-0.802 3.309,-0.275 0.913,0.527 1.416,1.595 1.416,3.005 v 3.122 c 0,1.017 0.316,1.759 0.888,2.089 0.573,0.331 1.375,0.233 2.253,-0.275 l 12.949,-7.476 c 0.253,-0.147 0.575,-0.059 0.722,0.194 0.145,0.252 0.059,0.575 -0.194,0.722 l -12.948,7.475 c -0.703,0.405 -1.391,0.61 -2.022,0.61 z"
   id="path25" />
		<path
   style="fill:#42e8e0"
   d="m 330.869,274.834 c -0.466,10e-4 -0.9,-0.11 -1.288,-0.335 -0.913,-0.527 -1.416,-1.594 -1.416,-3.003 v -3.123 c 0,-1.017 -0.315,-1.758 -0.888,-2.089 -0.573,-0.332 -1.375,-0.232 -2.253,0.275 l -2.704,1.563 c -0.257,0.146 -0.576,0.058 -0.723,-0.193 -0.146,-0.253 -0.059,-0.576 0.193,-0.723 l 2.704,-1.561 c 1.223,-0.703 2.398,-0.801 3.311,-0.275 0.913,0.527 1.416,1.594 1.416,3.004 v 3.123 c 0,1.016 0.315,1.758 0.888,2.088 0.571,0.33 1.372,0.232 2.254,-0.275 l 12.946,-7.476 c 0.257,-0.146 0.575,-0.058 0.723,0.193 0.146,0.253 0.059,0.576 -0.193,0.723 l -12.947,7.476 c -0.703,0.404 -1.391,0.608 -2.023,0.608 z"
   id="path26" />
		<path
   style="fill:#42e8e0"
   d="m 335.904,277.731 c -0.465,0 -0.899,-0.111 -1.287,-0.335 -0.913,-0.527 -1.416,-1.594 -1.416,-3.004 v -3.122 c 0,-1.017 -0.316,-1.759 -0.888,-2.089 -0.573,-0.332 -1.374,-0.231 -2.254,0.275 l -2.703,1.561 c -0.258,0.146 -0.576,0.058 -0.723,-0.193 -0.146,-0.253 -0.059,-0.576 0.193,-0.723 l 2.704,-1.561 c 1.223,-0.704 2.398,-0.803 3.311,-0.275 0.913,0.527 1.416,1.594 1.416,3.004 v 3.122 c 0,1.017 0.315,1.759 0.888,2.089 0.571,0.33 1.371,0.232 2.253,-0.275 l 12.948,-7.476 c 0.252,-0.146 0.574,-0.059 0.722,0.194 0.146,0.252 0.059,0.575 -0.194,0.722 l -12.947,7.475 c -0.703,0.406 -1.391,0.611 -2.023,0.611 z"
   id="path27" />
		<path
   style="fill:#42e8e0"
   d="m 340.941,280.628 c -0.466,0 -0.9,-0.11 -1.288,-0.335 -0.913,-0.527 -1.416,-1.594 -1.416,-3.004 v -3.122 c 0,-1.017 -0.315,-1.759 -0.888,-2.089 -0.573,-0.332 -1.372,-0.234 -2.253,0.276 l -2.705,1.561 c -0.254,0.148 -0.575,0.059 -0.722,-0.194 -0.146,-0.252 -0.059,-0.575 0.194,-0.722 l 2.704,-1.561 c 1.221,-0.703 2.396,-0.803 3.31,-0.275 0.913,0.527 1.416,1.594 1.416,3.004 v 3.122 c 0,1.017 0.316,1.759 0.888,2.089 0.574,0.333 1.375,0.232 2.254,-0.275 l 12.946,-7.476 c 0.256,-0.147 0.575,-0.059 0.723,0.193 0.146,0.253 0.059,0.576 -0.193,0.723 l -12.947,7.476 c -0.703,0.405 -1.392,0.609 -2.023,0.609 z"
   id="path28" />
		<path
   style="fill:#42e8e0"
   d="m 345.977,283.525 c -0.465,0 -0.9,-0.111 -1.287,-0.335 -0.913,-0.527 -1.416,-1.594 -1.416,-3.004 v -3.122 c 0,-1.017 -0.315,-1.759 -0.888,-2.089 -0.575,-0.332 -1.374,-0.233 -2.253,0.275 l -2.704,1.561 c -0.258,0.146 -0.577,0.058 -0.723,-0.193 -0.146,-0.253 -0.059,-0.576 0.193,-0.723 l 2.704,-1.561 c 1.221,-0.703 2.398,-0.803 3.311,-0.274 0.913,0.527 1.416,1.594 1.416,3.004 v 3.122 c 0,1.017 0.315,1.759 0.888,2.089 0.571,0.33 1.371,0.232 2.253,-0.276 l 12.948,-7.475 c 0.253,-0.147 0.575,-0.059 0.722,0.194 0.146,0.252 0.059,0.575 -0.194,0.722 L 348,282.915 c -0.704,0.405 -1.392,0.61 -2.023,0.61 z"
   id="path29" />
		<path
   style="fill:#42e8e0"
   d="m 351.014,286.422 c -0.466,0 -0.9,-0.11 -1.288,-0.334 -0.913,-0.527 -1.416,-1.595 -1.416,-3.005 v -3.122 c 0,-1.017 -0.316,-1.759 -0.888,-2.089 -0.573,-0.332 -1.375,-0.232 -2.253,0.275 l -2.705,1.561 c -0.254,0.147 -0.575,0.059 -0.722,-0.194 -0.146,-0.252 -0.059,-0.575 0.194,-0.722 l 2.704,-1.56 c 1.221,-0.704 2.398,-0.801 3.309,-0.275 0.914,0.527 1.417,1.594 1.417,3.004 v 3.122 c 0,1.017 0.315,1.759 0.888,2.089 0.572,0.33 1.372,0.232 2.252,-0.275 l 12.948,-7.476 c 0.256,-0.146 0.576,-0.059 0.723,0.193 0.146,0.253 0.059,0.576 -0.193,0.723 l -12.948,7.475 c -0.704,0.406 -1.391,0.61 -2.022,0.61 z"
   id="path30" />
		<path
   style="fill:#42e8e0"
   d="m 356.049,289.319 c -0.465,0 -0.899,-0.111 -1.287,-0.335 -0.914,-0.527 -1.417,-1.594 -1.417,-3.004 v -3.123 c 0,-1.017 -0.315,-1.758 -0.888,-2.088 -0.572,-0.332 -1.373,-0.233 -2.252,0.275 l -2.706,1.561 c -0.255,0.146 -0.575,0.058 -0.722,-0.194 -0.145,-0.252 -0.059,-0.575 0.194,-0.722 l 2.705,-1.562 c 1.219,-0.703 2.395,-0.803 3.309,-0.275 0.913,0.527 1.416,1.595 1.416,3.004 v 3.123 c 0,1.017 0.315,1.758 0.889,2.089 0.57,0.33 1.372,0.232 2.252,-0.275 l 12.949,-7.476 c 0.253,-0.148 0.575,-0.059 0.722,0.194 0.146,0.252 0.059,0.575 -0.194,0.722 l -12.948,7.475 c -0.703,0.406 -1.39,0.611 -2.022,0.611 z"
   id="path31" />
		<path
   style="fill:#42e8e0"
   d="m 361.085,292.216 c -0.465,0 -0.9,-0.11 -1.288,-0.335 -0.913,-0.527 -1.416,-1.594 -1.416,-3.004 v -3.122 c 0,-1.017 -0.315,-1.759 -0.888,-2.089 -0.572,-0.332 -1.373,-0.234 -2.253,0.276 l -2.705,1.561 c -0.253,0.147 -0.575,0.059 -0.722,-0.194 -0.146,-0.252 -0.059,-0.575 0.194,-0.722 l 2.704,-1.561 c 1.222,-0.703 2.396,-0.802 3.31,-0.275 0.913,0.527 1.416,1.594 1.416,3.004 v 3.122 c 0,1.017 0.315,1.759 0.888,2.089 0.574,0.33 1.373,0.233 2.253,-0.275 l 12.947,-7.476 c 0.256,-0.147 0.575,-0.058 0.723,0.193 0.146,0.253 0.059,0.576 -0.193,0.723 l -12.947,7.476 c -0.704,0.405 -1.391,0.609 -2.023,0.609 z"
   id="path32" />
		<path
   style="fill:#42e8e0"
   d="m 366.121,295.112 c -0.466,0 -0.9,-0.11 -1.288,-0.335 -0.913,-0.527 -1.416,-1.594 -1.416,-3.003 v -3.123 c 0,-1.016 -0.315,-1.758 -0.888,-2.088 -0.572,-0.332 -1.374,-0.233 -2.254,0.275 l -2.703,1.561 c -0.258,0.145 -0.577,0.058 -0.723,-0.193 -0.145,-0.253 -0.059,-0.576 0.193,-0.723 l 2.704,-1.561 c 1.224,-0.704 2.398,-0.802 3.31,-0.274 0.913,0.527 1.416,1.594 1.416,3.003 v 3.123 c 0,1.016 0.315,1.758 0.888,2.088 0.571,0.33 1.373,0.233 2.254,-0.275 l 12.946,-7.476 c 0.256,-0.147 0.576,-0.059 0.723,0.193 0.146,0.253 0.059,0.576 -0.193,0.723 l -12.947,7.476 c -0.703,0.405 -1.391,0.609 -2.022,0.609 z"
   id="path33" />
		<path
   style="fill:#42e8e0"
   d="m 371.157,298.01 c -0.466,0 -0.9,-0.11 -1.288,-0.335 -0.913,-0.527 -1.416,-1.594 -1.416,-3.004 v -3.122 c 0,-1.017 -0.315,-1.759 -0.888,-2.089 -0.572,-0.331 -1.375,-0.231 -2.254,0.275 l -2.703,1.561 c -0.257,0.146 -0.577,0.058 -0.723,-0.193 -0.145,-0.253 -0.059,-0.576 0.193,-0.723 l 2.704,-1.561 c 1.223,-0.704 2.398,-0.803 3.311,-0.274 0.913,0.527 1.416,1.594 1.416,3.004 v 3.122 c 0,1.017 0.315,1.759 0.888,2.089 0.574,0.333 1.376,0.233 2.254,-0.275 l 12.946,-7.476 c 0.256,-0.147 0.576,-0.059 0.723,0.193 0.146,0.253 0.059,0.576 -0.193,0.723 L 373.18,297.4 c -0.703,0.406 -1.392,0.61 -2.023,0.61 z"
   id="path34" />
		<path
   style="fill:#42e8e0"
   d="m 376.193,300.906 c -0.466,0 -0.9,-0.11 -1.288,-0.335 -0.913,-0.527 -1.416,-1.594 -1.416,-3.003 v -3.123 c 0,-1.016 -0.315,-1.758 -0.888,-2.088 -0.573,-0.332 -1.373,-0.233 -2.254,0.275 l -2.703,1.562 c -0.257,0.145 -0.576,0.058 -0.723,-0.193 -0.146,-0.253 -0.059,-0.576 0.193,-0.723 l 2.704,-1.562 c 1.223,-0.704 2.398,-0.803 3.311,-0.274 0.913,0.527 1.416,1.594 1.416,3.003 v 3.123 c 0,1.016 0.315,1.758 0.888,2.088 0.571,0.33 1.373,0.233 2.254,-0.275 l 12.946,-7.476 c 0.255,-0.147 0.576,-0.058 0.723,0.193 0.146,0.253 0.059,0.576 -0.193,0.723 l -12.947,7.476 c -0.703,0.405 -1.392,0.609 -2.023,0.609 z"
   id="path35" />
		<path
   style="fill:#42e8e0"
   d="m 381.229,303.804 c -0.466,0 -0.9,-0.11 -1.288,-0.335 -0.913,-0.527 -1.416,-1.594 -1.416,-3.004 v -3.122 c 0,-1.017 -0.315,-1.759 -0.888,-2.089 -0.575,-0.332 -1.373,-0.233 -2.253,0.275 l -2.704,1.562 c -0.257,0.145 -0.576,0.058 -0.723,-0.193 -0.146,-0.253 -0.059,-0.576 0.193,-0.723 l 2.704,-1.561 c 1.222,-0.703 2.397,-0.804 3.31,-0.274 0.913,0.527 1.416,1.594 1.416,3.004 v 3.122 c 0,1.017 0.315,1.759 0.888,2.089 0.574,0.333 1.376,0.232 2.254,-0.275 l 12.946,-7.476 c 0.257,-0.148 0.576,-0.059 0.723,0.193 0.146,0.253 0.059,0.576 -0.193,0.723 l -12.947,7.476 c -0.702,0.403 -1.391,0.608 -2.022,0.608 z"
   id="path36" />
		<path
   style="fill:#42e8e0"
   d="m 386.265,306.7 c -0.465,0 -0.899,-0.11 -1.287,-0.334 -0.913,-0.527 -1.416,-1.595 -1.416,-3.004 v -3.123 c 0,-1.016 -0.315,-1.758 -0.888,-2.088 -0.572,-0.331 -1.374,-0.233 -2.253,0.275 l -2.704,1.561 c -0.258,0.146 -0.576,0.058 -0.723,-0.193 -0.145,-0.253 -0.059,-0.576 0.193,-0.723 l 2.704,-1.562 c 1.222,-0.703 2.397,-0.804 3.31,-0.274 0.913,0.527 1.416,1.594 1.416,3.003 v 3.123 c 0,1.017 0.315,1.758 0.888,2.088 0.571,0.33 1.372,0.232 2.252,-0.275 l 12.948,-7.475 c 0.256,-0.147 0.575,-0.059 0.723,0.193 0.146,0.253 0.059,0.576 -0.193,0.723 l -12.948,7.476 c -0.703,0.405 -1.391,0.609 -2.022,0.609 z"
   id="path37" />
		<path
   style="fill:#42e8e0"
   d="m 391.301,309.598 c -0.466,0 -0.9,-0.111 -1.287,-0.335 -0.914,-0.527 -1.417,-1.594 -1.417,-3.004 v -3.122 c 0,-1.017 -0.315,-1.759 -0.888,-2.089 -0.572,-0.332 -1.373,-0.233 -2.252,0.275 l -2.706,1.562 c -0.251,0.145 -0.574,0.06 -0.722,-0.194 -0.146,-0.252 -0.059,-0.575 0.194,-0.722 l 2.705,-1.561 c 1.221,-0.703 2.397,-0.801 3.309,-0.275 0.913,0.527 1.416,1.595 1.416,3.005 v 3.122 c 0,1.017 0.315,1.759 0.888,2.089 0.573,0.332 1.375,0.232 2.253,-0.275 l 12.949,-7.476 c 0.254,-0.146 0.574,-0.059 0.722,0.194 0.146,0.252 0.059,0.575 -0.194,0.722 l -12.948,7.475 c -0.703,0.403 -1.391,0.609 -2.022,0.609 z"
   id="path38" />
		<path
   style="fill:#42e8e0"
   d="m 396.337,312.494 c -0.465,10e-4 -0.9,-0.11 -1.288,-0.335 -0.913,-0.527 -1.416,-1.594 -1.416,-3.003 v -3.123 c 0,-1.017 -0.315,-1.758 -0.888,-2.089 -0.573,-0.332 -1.375,-0.232 -2.253,0.275 l -2.704,1.563 c -0.257,0.146 -0.576,0.058 -0.723,-0.193 -0.146,-0.253 -0.059,-0.576 0.193,-0.723 l 2.704,-1.562 c 1.223,-0.704 2.398,-0.802 3.311,-0.275 0.913,0.527 1.416,1.594 1.416,3.004 v 3.123 c 0,1.016 0.315,1.758 0.888,2.088 0.572,0.33 1.373,0.233 2.253,-0.275 l 12.947,-7.476 c 0.255,-0.148 0.576,-0.059 0.723,0.193 0.145,0.253 0.059,0.576 -0.193,0.723 l -12.947,7.476 c -0.704,0.405 -1.391,0.609 -2.023,0.609 z"
   id="path39" />
		<path
   style="fill:#42e8e0"
   d="m 401.372,315.391 c -0.465,0 -0.899,-0.111 -1.287,-0.335 -0.913,-0.527 -1.416,-1.594 -1.416,-3.004 v -3.122 c 0,-1.017 -0.315,-1.759 -0.888,-2.089 -0.573,-0.331 -1.374,-0.231 -2.254,0.275 l -2.703,1.562 c -0.257,0.146 -0.576,0.058 -0.723,-0.193 -0.146,-0.253 -0.059,-0.576 0.193,-0.723 l 2.704,-1.562 c 1.223,-0.704 2.397,-0.802 3.311,-0.274 0.913,0.527 1.416,1.594 1.416,3.004 v 3.122 c 0,1.017 0.315,1.759 0.888,2.089 0.572,0.33 1.371,0.233 2.253,-0.275 l 12.948,-7.476 c 0.252,-0.147 0.575,-0.059 0.722,0.194 0.145,0.252 0.059,0.575 -0.194,0.722 l -12.947,7.475 c -0.704,0.405 -1.391,0.61 -2.023,0.61 z"
   id="path40" />
		<path
   style="fill:#42e8e0"
   d="m 406.409,318.288 c -0.466,0 -0.9,-0.11 -1.288,-0.335 -0.913,-0.527 -1.416,-1.594 -1.416,-3.003 v -3.123 c 0,-1.017 -0.315,-1.758 -0.888,-2.089 -0.574,-0.332 -1.374,-0.233 -2.253,0.276 l -2.704,1.561 c -0.258,0.146 -0.576,0.058 -0.723,-0.193 -0.146,-0.253 -0.059,-0.576 0.193,-0.723 l 2.704,-1.561 c 1.223,-0.705 2.397,-0.802 3.311,-0.275 0.913,0.527 1.416,1.594 1.416,3.004 v 3.123 c 0,1.016 0.315,1.758 0.888,2.088 0.571,0.33 1.373,0.232 2.254,-0.275 l 12.946,-7.476 c 0.256,-0.146 0.575,-0.059 0.723,0.193 0.146,0.253 0.059,0.576 -0.193,0.723 l -12.947,7.476 c -0.704,0.405 -1.392,0.609 -2.023,0.609 z"
   id="path41" />
	</g>
	<g
   id="g92">
		<g
   id="g47">
			
				<linearGradient
   id="SVGID_00000003802550551931259970000008357673671067596206_"
   gradientUnits="userSpaceOnUse"
   x1="151.76151"
   y1="346.70779"
   x2="406.75061"
   y2="346.70779">
				<stop
   offset="0"
   style="stop-color:#5761D7"
   id="stop41" />
				<stop
   offset="0.1645"
   style="stop-color:#5E67DA"
   id="stop42" />
				<stop
   offset="0.4051"
   style="stop-color:#727AE2"
   id="stop43" />
				<stop
   offset="0.6924"
   style="stop-color:#9297EE"
   id="stop44" />
				<stop
   offset="1"
   style="stop-color:#BCBEFF"
   id="stop45" />
			</linearGradient>
			<polygon
   style="fill:url(#SVGID_00000003802550551931259970000008357673671067596206_)"
   points="200.955,323.735 200.955,312.237 399.943,312.239 399.943,323.736 300.451,381.178 "
   id="polygon45" />
			<polygon
   style="fill:#bcbeff"
   points="300.451,369.681 200.955,312.237 300.448,254.795 399.943,312.239 "
   id="polygon46" />
			<polygon
   style="fill:#ffffff"
   points="200.955,312.237 300.451,369.681 399.943,312.239 398.78,311.567 300.451,368.338 202.119,311.566 "
   id="polygon47" />
		</g>
		<g
   id="g91">
			<polygon
   style="fill:#0f054c"
   points="300.451,356.432 223.925,312.25 300.448,268.069 376.973,312.251 "
   id="polygon48" />
			<g
   id="g90">
				
					<linearGradient
   id="SVGID_00000129916040184362062760000017841776374776105383_"
   gradientUnits="userSpaceOnUse"
   x1="223.9239"
   y1="312.2515"
   x2="376.97501"
   y2="312.2515">
					<stop
   offset="0"
   style="stop-color:#42E8E0"
   id="stop48" />
					<stop
   offset="0.1507"
   style="stop-color:#43E3E0"
   id="stop49" />
					<stop
   offset="0.3285"
   style="stop-color:#45D5DF"
   id="stop50" />
					<stop
   offset="0.5199"
   style="stop-color:#49BDDD"
   id="stop51" />
					<stop
   offset="0.7209"
   style="stop-color:#4E9CDB"
   id="stop52" />
					<stop
   offset="0.9274"
   style="stop-color:#5472D8"
   id="stop53" />
					<stop
   offset="1"
   style="stop-color:#5761D7"
   id="stop54" />
				</linearGradient>
				<polygon
   style="opacity:0.5;fill:url(#SVGID_00000129916040184362062760000017841776374776105383_)"
   points="300.451,356.434 223.924,312.251 300.448,268.069 376.975,312.252 "
   id="polygon54" />
				<g
   id="g83">
					
						<linearGradient
   id="SVGID_00000132807294809517341260000016945737377591259834_"
   gradientUnits="userSpaceOnUse"
   x1="300.4483"
   y1="284.58981"
   x2="376.97501"
   y2="284.58981">
						<stop
   offset="0"
   style="stop-color:#42E8E0"
   id="stop55" />
						<stop
   offset="0.1507"
   style="stop-color:#43E3E0"
   id="stop56" />
						<stop
   offset="0.3285"
   style="stop-color:#45D5DF"
   id="stop57" />
						<stop
   offset="0.5199"
   style="stop-color:#49BDDD"
   id="stop58" />
						<stop
   offset="0.7209"
   style="stop-color:#4E9CDB"
   id="stop59" />
						<stop
   offset="0.9274"
   style="stop-color:#5472D8"
   id="stop60" />
						<stop
   offset="1"
   style="stop-color:#5761D7"
   id="stop61" />
					</linearGradient>
					<polygon
   style="opacity:0.5;fill:url(#SVGID_00000132807294809517341260000016945737377591259834_)"
   points="300.448,256.928 376.975,301.111 376.975,312.251 300.448,268.069 "
   id="polygon61" />
					
						<linearGradient
   id="SVGID_00000078757870274891015980000005554052244577958056_"
   gradientUnits="userSpaceOnUse"
   x1="223.9239"
   y1="284.58911"
   x2="300.45059"
   y2="284.58911">
						<stop
   offset="0"
   style="stop-color:#42E8E0"
   id="stop62" />
						<stop
   offset="0.1507"
   style="stop-color:#43E3E0"
   id="stop63" />
						<stop
   offset="0.3285"
   style="stop-color:#45D5DF"
   id="stop64" />
						<stop
   offset="0.5199"
   style="stop-color:#49BDDD"
   id="stop65" />
						<stop
   offset="0.7209"
   style="stop-color:#4E9CDB"
   id="stop66" />
						<stop
   offset="0.9274"
   style="stop-color:#5472D8"
   id="stop67" />
						<stop
   offset="1"
   style="stop-color:#5761D7"
   id="stop68" />
					</linearGradient>
					<polygon
   style="opacity:0.5;fill:url(#SVGID_00000078757870274891015980000005554052244577958056_)"
   points="300.451,268.069 223.924,312.25 223.924,301.109 300.448,256.928 "
   id="polygon68" />
					
						<linearGradient
   id="SVGID_00000073688713957576169000000001348690131860955324_"
   gradientUnits="userSpaceOnUse"
   x1="223.9239"
   y1="301.11011"
   x2="376.97501"
   y2="301.11011">
						<stop
   offset="0"
   style="stop-color:#42E8E0"
   id="stop69" />
						<stop
   offset="0.1507"
   style="stop-color:#43E3E0"
   id="stop70" />
						<stop
   offset="0.3285"
   style="stop-color:#45D5DF"
   id="stop71" />
						<stop
   offset="0.5199"
   style="stop-color:#49BDDD"
   id="stop72" />
						<stop
   offset="0.7209"
   style="stop-color:#4E9CDB"
   id="stop73" />
						<stop
   offset="0.9274"
   style="stop-color:#5472D8"
   id="stop74" />
						<stop
   offset="1"
   style="stop-color:#5761D7"
   id="stop75" />
					</linearGradient>
					<polygon
   style="opacity:0.5;fill:url(#SVGID_00000073688713957576169000000001348690131860955324_)"
   points="300.451,345.292 223.924,301.109 300.448,256.928 376.975,301.111 "
   id="polygon75" />
					<polygon
   style="opacity:0.5;fill:#42e8e0"
   points="300.45,318.764 269.871,301.11 300.449,283.456 331.027,301.11 "
   id="polygon76" />
					<polygon
   style="opacity:0.5;fill:#42e8e0"
   points="331.027,301.111 300.449,283.456 269.872,301.11 271.278,301.922 300.449,285.08 329.621,301.923 "
   id="polygon77" />
					
						<linearGradient
   id="SVGID_00000085225296920493137430000003009112138601054131_"
   gradientUnits="userSpaceOnUse"
   x1="300.45059"
   y1="328.77191"
   x2="376.97501"
   y2="328.77191">
						<stop
   offset="0"
   style="stop-color:#42E8E0"
   id="stop77" />
						<stop
   offset="0.1507"
   style="stop-color:#43E3E0"
   id="stop78" />
						<stop
   offset="0.3285"
   style="stop-color:#45D5DF"
   id="stop79" />
						<stop
   offset="0.5199"
   style="stop-color:#49BDDD"
   id="stop80" />
						<stop
   offset="0.7209"
   style="stop-color:#4E9CDB"
   id="stop81" />
						<stop
   offset="0.9274"
   style="stop-color:#5472D8"
   id="stop82" />
						<stop
   offset="1"
   style="stop-color:#5761D7"
   id="stop83" />
					</linearGradient>
					<polygon
   style="opacity:0.5;fill:url(#SVGID_00000085225296920493137430000003009112138601054131_)"
   points="300.451,345.292 300.451,356.433 376.975,312.251 376.975,301.111 "
   id="polygon83" />
				</g>
				
					<linearGradient
   id="SVGID_00000168819257079268725810000017195096339896653216_"
   gradientUnits="userSpaceOnUse"
   x1="223.9239"
   y1="328.77121"
   x2="300.45059"
   y2="328.77121">
					<stop
   offset="0"
   style="stop-color:#42E8E0"
   id="stop84" />
					<stop
   offset="0.1507"
   style="stop-color:#43E3E0"
   id="stop85" />
					<stop
   offset="0.3285"
   style="stop-color:#45D5DF"
   id="stop86" />
					<stop
   offset="0.5199"
   style="stop-color:#49BDDD"
   id="stop87" />
					<stop
   offset="0.7209"
   style="stop-color:#4E9CDB"
   id="stop88" />
					<stop
   offset="0.9274"
   style="stop-color:#5472D8"
   id="stop89" />
					<stop
   offset="1"
   style="stop-color:#5761D7"
   id="stop90" />
				</linearGradient>
				<polygon
   style="opacity:0.5;fill:url(#SVGID_00000168819257079268725810000017195096339896653216_)"
   points="223.924,301.109 223.924,312.25 300.451,356.433 300.451,345.292 "
   id="polygon90" />
			</g>
			<polygon
   style="opacity:0.8;fill:#42e8e0"
   points="223.924,301.11 300.451,345.292 376.975,301.111 375.922,300.503 300.451,344.076 224.977,300.501 "
   id="polygon91" />
		</g>
	</g>
	<g
   id="g111">
		<path
   style="fill:#42e8e0"
   d="m 325.43,395.045 c -0.089,0 -0.18,-0.022 -0.263,-0.07 L 312.22,387.5 c -2.354,-1.36 -4.198,-4.554 -4.198,-7.27 v -3.123 c 0,-2.337 -1.646,-5.188 -3.669,-6.354 l -2.705,-1.561 c -0.252,-0.147 -0.339,-0.47 -0.193,-0.723 0.146,-0.251 0.466,-0.341 0.723,-0.193 l 2.704,1.561 c 2.354,1.358 4.197,4.552 4.197,7.271 v 3.123 c 0,2.336 1.646,5.187 3.67,6.354 l 12.946,7.475 c 0.253,0.146 0.34,0.47 0.194,0.722 -0.099,0.168 -0.277,0.263 -0.459,0.263 z"
   id="path92" />
		<path
   style="fill:#42e8e0"
   d="m 330.466,392.143 c -0.089,0 -0.18,-0.022 -0.264,-0.07 l -12.947,-7.476 c -2.353,-1.358 -4.197,-4.552 -4.197,-7.271 v -3.123 c 0,-2.336 -1.646,-5.186 -3.67,-6.354 l -2.704,-1.562 c -0.252,-0.147 -0.339,-0.47 -0.193,-0.723 0.146,-0.251 0.465,-0.341 0.723,-0.193 l 2.704,1.562 c 2.354,1.359 4.197,4.553 4.197,7.27 v 3.123 c 0,2.337 1.646,5.188 3.669,6.354 l 12.948,7.476 c 0.252,0.146 0.339,0.47 0.193,0.723 -0.099,0.17 -0.277,0.264 -0.459,0.264 z"
   id="path93" />
		<path
   style="fill:#42e8e0"
   d="m 335.502,389.241 c -0.089,0 -0.18,-0.022 -0.264,-0.07 l -12.948,-7.475 c -2.353,-1.359 -4.196,-4.553 -4.196,-7.271 v -3.122 c 0,-2.336 -1.646,-5.187 -3.67,-6.357 l -2.703,-1.56 c -0.253,-0.146 -0.34,-0.47 -0.194,-0.722 0.146,-0.253 0.467,-0.341 0.722,-0.194 l 2.704,1.561 c 2.354,1.36 4.198,4.555 4.198,7.272 v 3.122 c 0,2.336 1.646,5.188 3.669,6.355 l 12.948,7.476 c 0.252,0.147 0.339,0.47 0.193,0.723 -0.099,0.167 -0.276,0.262 -0.459,0.262 z"
   id="path94" />
		<path
   style="fill:#42e8e0"
   d="m 340.538,386.34 c -0.089,0 -0.18,-0.022 -0.264,-0.07 l -12.948,-7.476 c -2.354,-1.359 -4.197,-4.553 -4.197,-7.271 V 368.4 c 0,-2.336 -1.646,-5.188 -3.669,-6.355 l -2.704,-1.561 c -0.253,-0.146 -0.34,-0.47 -0.194,-0.722 0.147,-0.253 0.467,-0.341 0.722,-0.194 l 2.705,1.561 c 2.354,1.359 4.197,4.553 4.197,7.271 v 3.123 c 0,2.336 1.647,5.187 3.67,6.355 l 12.948,7.476 c 0.252,0.146 0.339,0.47 0.193,0.723 -0.099,0.168 -0.276,0.263 -0.459,0.263 z"
   id="path95" />
		<path
   style="fill:#42e8e0"
   d="m 345.573,383.437 c -0.089,0 -0.18,-0.022 -0.264,-0.07 l -12.947,-7.476 c -2.354,-1.359 -4.197,-4.553 -4.197,-7.27 v -3.123 c 0,-2.336 -1.646,-5.186 -3.67,-6.355 l -2.704,-1.56 c -0.252,-0.147 -0.339,-0.47 -0.193,-0.723 0.146,-0.252 0.466,-0.34 0.723,-0.193 l 2.704,1.561 c 2.354,1.36 4.197,4.554 4.197,7.271 v 3.123 c 0,2.336 1.647,5.187 3.669,6.354 l 12.948,7.476 c 0.252,0.147 0.339,0.47 0.193,0.723 -0.098,0.168 -0.276,0.262 -0.459,0.262 z"
   id="path96" />
		<path
   style="fill:#42e8e0"
   d="m 350.609,380.535 c -0.089,0 -0.18,-0.022 -0.263,-0.07 l -12.947,-7.475 c -2.354,-1.36 -4.198,-4.554 -4.198,-7.272 v -3.122 c 0,-2.337 -1.647,-5.188 -3.669,-6.354 l -2.705,-1.561 c -0.252,-0.147 -0.339,-0.47 -0.193,-0.723 0.147,-0.252 0.465,-0.34 0.723,-0.193 l 2.704,1.561 c 2.354,1.358 4.197,4.552 4.197,7.271 v 3.122 c 0,2.336 1.647,5.188 3.67,6.355 l 12.946,7.475 c 0.253,0.146 0.34,0.47 0.194,0.722 -0.098,0.169 -0.276,0.264 -0.459,0.264 z"
   id="path97" />
		<path
   style="fill:#42e8e0"
   d="m 355.646,377.634 c -0.089,0 -0.18,-0.022 -0.264,-0.07 l -12.947,-7.476 c -2.354,-1.358 -4.197,-4.552 -4.197,-7.271 v -3.123 c 0,-2.337 -1.647,-5.188 -3.669,-6.355 l -2.705,-1.561 c -0.252,-0.146 -0.339,-0.47 -0.193,-0.723 0.146,-0.252 0.465,-0.341 0.723,-0.193 l 2.704,1.562 c 2.354,1.358 4.197,4.552 4.197,7.271 v 3.123 c 0,2.337 1.647,5.188 3.669,6.354 l 12.948,7.476 c 0.252,0.146 0.339,0.47 0.193,0.723 -0.099,0.168 -0.277,0.263 -0.459,0.263 z"
   id="path98" />
		<path
   style="fill:#42e8e0"
   d="m 360.682,374.731 c -0.089,0 -0.18,-0.022 -0.264,-0.07 l -12.947,-7.476 c -2.354,-1.358 -4.197,-4.552 -4.197,-7.271 v -3.122 c 0,-2.336 -1.646,-5.186 -3.67,-6.356 l -2.704,-1.561 c -0.252,-0.146 -0.339,-0.47 -0.193,-0.723 0.146,-0.252 0.465,-0.341 0.723,-0.193 l 2.704,1.561 c 2.354,1.36 4.197,4.555 4.197,7.271 v 3.122 c 0,2.337 1.647,5.188 3.669,6.355 l 12.948,7.476 c 0.252,0.146 0.339,0.47 0.193,0.723 -0.099,0.17 -0.277,0.264 -0.459,0.264 z"
   id="path99" />
		<path
   style="fill:#42e8e0"
   d="m 365.718,371.829 c -0.089,0 -0.18,-0.022 -0.263,-0.07 l -12.948,-7.475 c -2.354,-1.36 -4.197,-4.554 -4.197,-7.271 v -3.122 c 0,-2.336 -1.647,-5.187 -3.67,-6.354 l -2.704,-1.562 c -0.252,-0.146 -0.339,-0.47 -0.193,-0.723 0.146,-0.251 0.466,-0.341 0.723,-0.193 l 2.704,1.562 c 2.354,1.359 4.197,4.553 4.197,7.271 v 3.122 c 0,2.336 1.646,5.188 3.669,6.356 l 12.947,7.474 c 0.253,0.147 0.34,0.47 0.194,0.722 -0.099,0.168 -0.277,0.263 -0.459,0.263 z"
   id="path100" />
		<path
   style="fill:#42e8e0"
   d="m 370.754,368.928 c -0.089,0 -0.18,-0.023 -0.264,-0.07 l -12.948,-7.476 c -2.353,-1.359 -4.197,-4.553 -4.197,-7.271 v -3.123 c 0,-2.336 -1.646,-5.188 -3.669,-6.354 l -2.704,-1.561 c -0.253,-0.147 -0.34,-0.47 -0.194,-0.722 0.147,-0.253 0.467,-0.341 0.722,-0.194 l 2.705,1.561 c 2.353,1.359 4.197,4.553 4.197,7.271 v 3.123 c 0,2.336 1.646,5.186 3.67,6.354 l 12.948,7.475 c 0.252,0.147 0.339,0.47 0.193,0.723 -0.099,0.169 -0.277,0.264 -0.459,0.264 z"
   id="path101" />
		<path
   style="fill:#42e8e0"
   d="m 375.789,366.025 c -0.089,0 -0.18,-0.022 -0.264,-0.07 l -12.947,-7.476 c -2.354,-1.359 -4.197,-4.553 -4.197,-7.271 v -3.122 c 0,-2.336 -1.646,-5.188 -3.67,-6.355 l -2.703,-1.561 c -0.253,-0.146 -0.34,-0.47 -0.194,-0.722 0.146,-0.253 0.467,-0.342 0.722,-0.194 l 2.704,1.561 c 2.354,1.36 4.198,4.554 4.198,7.271 v 3.122 c 0,2.336 1.647,5.186 3.67,6.354 l 12.947,7.476 c 0.252,0.146 0.339,0.47 0.193,0.723 -0.099,0.17 -0.276,0.264 -0.459,0.264 z"
   id="path102" />
		<path
   style="fill:#42e8e0"
   d="m 380.825,363.123 c -0.089,0 -0.18,-0.022 -0.263,-0.07 l -12.947,-7.475 c -2.355,-1.36 -4.198,-4.554 -4.198,-7.272 v -3.122 c 0,-2.337 -1.646,-5.188 -3.669,-6.354 l -2.705,-1.561 c -0.252,-0.147 -0.339,-0.47 -0.193,-0.723 0.146,-0.251 0.465,-0.34 0.723,-0.193 l 2.704,1.562 c 2.353,1.358 4.197,4.552 4.197,7.27 v 3.122 c 0,2.336 1.646,5.188 3.67,6.355 l 12.946,7.475 c 0.253,0.146 0.34,0.47 0.194,0.722 -0.099,0.169 -0.276,0.264 -0.459,0.264 z"
   id="path103" />
		<path
   style="fill:#42e8e0"
   d="m 385.861,360.221 c -0.089,0 -0.18,-0.022 -0.264,-0.07 l -12.947,-7.476 c -2.353,-1.358 -4.197,-4.552 -4.197,-7.271 v -3.123 c 0,-2.337 -1.647,-5.188 -3.669,-6.354 l -2.705,-1.562 c -0.252,-0.146 -0.339,-0.47 -0.193,-0.723 0.146,-0.251 0.466,-0.341 0.723,-0.193 l 2.704,1.562 c 2.353,1.358 4.197,4.552 4.197,7.271 v 3.123 c 0,2.337 1.646,5.188 3.669,6.355 l 12.948,7.476 c 0.252,0.147 0.339,0.47 0.193,0.723 -0.098,0.168 -0.276,0.262 -0.459,0.262 z"
   id="path104" />
		<path
   style="fill:#42e8e0"
   d="m 390.897,357.319 c -0.089,0 -0.18,-0.023 -0.264,-0.07 l -12.947,-7.476 c -2.353,-1.358 -4.197,-4.552 -4.197,-7.27 v -3.122 c 0,-2.336 -1.646,-5.188 -3.67,-6.356 l -2.703,-1.56 c -0.253,-0.146 -0.34,-0.47 -0.194,-0.722 0.145,-0.252 0.467,-0.342 0.722,-0.194 l 2.704,1.56 c 2.354,1.36 4.198,4.554 4.198,7.272 v 3.122 c 0,2.337 1.646,5.188 3.669,6.354 l 12.948,7.475 c 0.252,0.147 0.339,0.47 0.193,0.723 -0.098,0.169 -0.276,0.264 -0.459,0.264 z"
   id="path105" />
		<path
   style="fill:#42e8e0"
   d="m 395.934,354.417 c -0.089,0 -0.18,-0.022 -0.263,-0.07 l -12.947,-7.475 c -2.355,-1.36 -4.198,-4.554 -4.198,-7.271 v -3.122 c 0,-2.336 -1.646,-5.187 -3.67,-6.354 l -2.704,-1.562 c -0.252,-0.146 -0.339,-0.47 -0.193,-0.723 0.146,-0.252 0.466,-0.34 0.723,-0.193 l 2.704,1.561 c 2.353,1.359 4.197,4.553 4.197,7.271 v 3.122 c 0,2.336 1.646,5.188 3.67,6.357 l 12.946,7.474 c 0.253,0.146 0.34,0.47 0.194,0.722 -0.099,0.168 -0.277,0.263 -0.459,0.263 z"
   id="path106" />
		<path
   style="fill:#42e8e0"
   d="m 400.97,351.516 c -0.089,0 -0.18,-0.022 -0.264,-0.07 l -12.948,-7.476 c -2.352,-1.359 -4.196,-4.553 -4.196,-7.271 v -3.123 c 0,-2.336 -1.646,-5.186 -3.67,-6.354 l -2.704,-1.561 c -0.252,-0.147 -0.339,-0.47 -0.193,-0.723 0.147,-0.252 0.465,-0.34 0.723,-0.193 l 2.704,1.562 c 2.353,1.359 4.197,4.553 4.197,7.27 v 3.123 c 0,2.336 1.646,5.188 3.669,6.354 l 12.948,7.476 c 0.252,0.146 0.339,0.47 0.193,0.723 -0.099,0.168 -0.277,0.263 -0.459,0.263 z"
   id="path107" />
		<path
   style="fill:#42e8e0"
   d="m 406.006,348.613 c -0.089,0 -0.18,-0.022 -0.264,-0.07 l -12.948,-7.476 c -2.353,-1.359 -4.197,-4.553 -4.197,-7.271 v -3.122 c 0,-2.336 -1.645,-5.188 -3.669,-6.356 l -2.704,-1.56 c -0.253,-0.147 -0.34,-0.47 -0.194,-0.722 0.146,-0.253 0.466,-0.342 0.722,-0.194 l 2.705,1.561 c 2.354,1.36 4.197,4.554 4.197,7.271 v 3.122 c 0,2.336 1.647,5.186 3.67,6.355 l 12.948,7.476 c 0.252,0.146 0.339,0.47 0.193,0.723 -0.099,0.168 -0.277,0.263 -0.459,0.263 z"
   id="path108" />
		<path
   style="fill:#42e8e0"
   d="m 411.041,345.711 c -0.089,0 -0.18,-0.022 -0.263,-0.07 l -12.947,-7.475 c -2.354,-1.36 -4.198,-4.555 -4.198,-7.271 v -3.122 c 0,-2.337 -1.646,-5.188 -3.669,-6.355 l -2.705,-1.561 c -0.252,-0.146 -0.339,-0.47 -0.193,-0.723 0.146,-0.252 0.466,-0.341 0.723,-0.193 l 2.704,1.561 c 2.354,1.358 4.197,4.552 4.197,7.271 v 3.122 c 0,2.336 1.646,5.186 3.67,6.356 l 12.946,7.474 c 0.253,0.146 0.34,0.47 0.194,0.722 -0.099,0.169 -0.276,0.264 -0.459,0.264 z"
   id="path109" />
		<path
   style="fill:#42e8e0"
   d="m 416.077,342.809 c -0.089,0 -0.18,-0.022 -0.264,-0.07 l -12.947,-7.476 c -2.353,-1.358 -4.197,-4.552 -4.197,-7.27 v -3.123 c 0,-2.337 -1.646,-5.188 -3.669,-6.354 l -2.705,-1.562 c -0.252,-0.146 -0.339,-0.47 -0.193,-0.723 0.146,-0.252 0.466,-0.341 0.723,-0.193 l 2.704,1.562 c 2.354,1.358 4.197,4.552 4.197,7.271 v 3.123 c 0,2.337 1.647,5.188 3.669,6.354 l 12.948,7.476 c 0.252,0.147 0.339,0.47 0.193,0.723 -0.098,0.168 -0.276,0.262 -0.459,0.262 z"
   id="path110" />
		<path
   style="fill:#42e8e0"
   d="m 421.113,339.907 c -0.089,0 -0.18,-0.022 -0.264,-0.07 l -12.947,-7.476 c -2.353,-1.358 -4.197,-4.552 -4.197,-7.271 v -3.122 c 0,-2.336 -1.646,-5.188 -3.67,-6.357 l -2.703,-1.559 c -0.253,-0.147 -0.34,-0.47 -0.194,-0.722 0.146,-0.253 0.467,-0.342 0.722,-0.194 l 2.704,1.561 c 2.355,1.36 4.198,4.554 4.198,7.271 v 3.122 c 0,2.337 1.647,5.188 3.669,6.354 l 12.948,7.475 c 0.252,0.147 0.339,0.47 0.193,0.723 -0.098,0.17 -0.276,0.265 -0.459,0.265 z"
   id="path111" />
	</g>
	<g
   id="g131">
		<path
   style="fill:#42e8e0"
   d="m 275.116,395.045 c -0.183,0 -0.36,-0.095 -0.458,-0.265 -0.146,-0.252 -0.06,-0.575 0.193,-0.722 l 12.948,-7.475 c 2.023,-1.168 3.669,-4.02 3.669,-6.354 v -3.123 c 0,-2.718 1.844,-5.911 4.197,-7.271 l 2.705,-1.561 c 0.251,-0.145 0.577,-0.059 0.722,0.193 0.146,0.253 0.06,0.576 -0.193,0.723 l -2.705,1.561 c -2.023,1.167 -3.669,4.018 -3.669,6.354 v 3.123 c 0,2.717 -1.844,5.91 -4.198,7.27 l -12.948,7.476 c -0.082,0.048 -0.173,0.071 -0.263,0.071 z"
   id="path112" />
		<path
   style="fill:#42e8e0"
   d="m 270.081,392.143 c -0.183,0 -0.36,-0.095 -0.458,-0.264 -0.146,-0.253 -0.06,-0.576 0.193,-0.723 l 12.947,-7.476 c 2.023,-1.167 3.669,-4.019 3.669,-6.354 v -3.123 c 0,-2.718 1.844,-5.911 4.198,-7.27 l 2.704,-1.562 c 0.251,-0.145 0.576,-0.059 0.722,0.193 0.146,0.253 0.06,0.576 -0.193,0.723 l -2.704,1.562 c -2.023,1.167 -3.669,4.019 -3.669,6.354 v 3.123 c 0,2.718 -1.844,5.911 -4.198,7.271 l -12.947,7.476 c -0.084,0.048 -0.175,0.07 -0.264,0.07 z"
   id="path113" />
		<path
   style="fill:#42e8e0"
   d="m 265.044,389.241 c -0.183,0 -0.36,-0.095 -0.458,-0.264 -0.146,-0.253 -0.06,-0.576 0.193,-0.723 l 12.948,-7.476 c 2.023,-1.167 3.669,-4.019 3.669,-6.355 v -3.122 c 0,-2.718 1.844,-5.911 4.198,-7.271 l 2.704,-1.562 c 0.252,-0.146 0.576,-0.059 0.722,0.194 0.146,0.252 0.059,0.575 -0.193,0.722 l -2.704,1.561 c -2.023,1.168 -3.669,4.02 -3.669,6.355 v 3.122 c 0,2.718 -1.844,5.911 -4.197,7.271 l -12.948,7.475 c -0.084,0.051 -0.175,0.073 -0.265,0.073 z"
   id="path114" />
		<path
   style="fill:#42e8e0"
   d="m 260.008,386.34 c -0.183,0 -0.36,-0.095 -0.458,-0.264 -0.146,-0.253 -0.06,-0.576 0.193,-0.723 l 12.948,-7.476 c 2.023,-1.167 3.669,-4.019 3.669,-6.355 V 368.4 c 0,-2.718 1.844,-5.911 4.197,-7.271 l 2.705,-1.561 c 0.252,-0.146 0.576,-0.059 0.722,0.193 0.146,0.253 0.059,0.576 -0.193,0.723 l -2.705,1.561 c -2.023,1.167 -3.669,4.019 -3.669,6.355 v 3.123 c 0,2.718 -1.844,5.911 -4.198,7.271 l -12.948,7.476 c -0.082,0.047 -0.173,0.07 -0.263,0.07 z"
   id="path115" />
		<path
   style="fill:#42e8e0"
   d="m 254.973,383.437 c -0.183,0 -0.36,-0.095 -0.458,-0.264 -0.146,-0.253 -0.06,-0.576 0.193,-0.723 l 12.947,-7.476 c 2.023,-1.167 3.669,-4.018 3.669,-6.354 v -3.123 c 0,-2.717 1.844,-5.91 4.198,-7.27 l 2.704,-1.563 c 0.252,-0.146 0.576,-0.059 0.722,0.193 0.146,0.253 0.06,0.576 -0.193,0.723 l -2.704,1.561 c -2.023,1.168 -3.669,4.02 -3.669,6.354 v 3.123 c 0,2.718 -1.844,5.911 -4.198,7.27 l -12.947,7.476 c -0.084,0.051 -0.174,0.073 -0.264,0.073 z"
   id="path116" />
		<path
   style="fill:#42e8e0"
   d="m 249.936,380.535 c -0.183,0 -0.36,-0.095 -0.458,-0.265 -0.146,-0.252 -0.06,-0.575 0.193,-0.722 l 12.948,-7.475 c 2.023,-1.168 3.669,-4.02 3.669,-6.355 v -3.122 c 0,-2.718 1.844,-5.911 4.198,-7.271 l 2.704,-1.561 c 0.251,-0.145 0.576,-0.059 0.722,0.193 0.146,0.253 0.06,0.576 -0.193,0.723 l -2.704,1.561 c -2.023,1.167 -3.669,4.019 -3.669,6.354 v 3.122 c 0,2.718 -1.844,5.911 -4.197,7.271 l -12.948,7.476 c -0.084,0.049 -0.175,0.071 -0.265,0.071 z"
   id="path117" />
		<path
   style="fill:#42e8e0"
   d="m 244.9,377.634 c -0.183,0 -0.36,-0.095 -0.458,-0.264 -0.146,-0.253 -0.06,-0.576 0.193,-0.723 l 12.948,-7.476 c 2.023,-1.167 3.669,-4.018 3.669,-6.354 v -3.123 c 0,-2.718 1.844,-5.911 4.197,-7.271 l 2.705,-1.562 c 0.252,-0.145 0.576,-0.059 0.722,0.193 0.146,0.253 0.06,0.576 -0.193,0.723 l -2.705,1.561 c -2.023,1.167 -3.669,4.018 -3.669,6.355 v 3.123 c 0,2.718 -1.844,5.911 -4.198,7.271 l -12.948,7.476 c -0.082,0.048 -0.173,0.071 -0.263,0.071 z"
   id="path118" />
		<path
   style="fill:#42e8e0"
   d="m 239.865,374.731 c -0.183,0 -0.36,-0.095 -0.458,-0.264 -0.146,-0.253 -0.059,-0.576 0.193,-0.723 l 12.947,-7.476 c 2.023,-1.167 3.669,-4.019 3.669,-6.355 v -3.122 c 0,-2.718 1.844,-5.911 4.198,-7.27 l 2.704,-1.563 c 0.252,-0.145 0.576,-0.059 0.722,0.193 0.146,0.253 0.06,0.576 -0.193,0.723 l -2.704,1.561 c -2.023,1.168 -3.669,4.02 -3.669,6.355 v 3.122 c 0,2.718 -1.844,5.911 -4.198,7.271 l -12.947,7.476 c -0.084,0.05 -0.174,0.072 -0.264,0.072 z"
   id="path119" />
		<path
   style="fill:#42e8e0"
   d="m 234.829,371.829 c -0.183,0 -0.36,-0.095 -0.458,-0.265 -0.146,-0.252 -0.06,-0.575 0.193,-0.722 l 12.948,-7.475 c 2.023,-1.168 3.669,-4.02 3.669,-6.355 v -3.122 c 0,-2.718 1.844,-5.911 4.198,-7.271 l 2.704,-1.562 c 0.252,-0.146 0.576,-0.059 0.722,0.193 0.146,0.253 0.06,0.576 -0.193,0.723 l -2.704,1.562 c -2.023,1.167 -3.669,4.018 -3.669,6.354 v 3.122 c 0,2.718 -1.844,5.911 -4.197,7.27 l -12.948,7.476 c -0.085,0.049 -0.175,0.072 -0.265,0.072 z"
   id="path120" />
		<path
   style="fill:#42e8e0"
   d="m 229.792,368.928 c -0.183,0 -0.36,-0.095 -0.458,-0.264 -0.146,-0.253 -0.06,-0.576 0.193,-0.723 l 12.948,-7.475 c 2.023,-1.167 3.669,-4.019 3.669,-6.354 v -3.123 c 0,-2.718 1.844,-5.911 4.197,-7.271 l 2.705,-1.561 c 0.252,-0.146 0.576,-0.059 0.722,0.193 0.146,0.253 0.059,0.576 -0.193,0.723 l -2.705,1.561 c -2.023,1.167 -3.669,4.019 -3.669,6.354 v 3.123 c 0,2.718 -1.844,5.911 -4.198,7.271 l -12.948,7.476 c -0.082,0.047 -0.173,0.07 -0.263,0.07 z"
   id="path121" />
		<path
   style="fill:#42e8e0"
   d="m 224.757,366.025 c -0.183,0 -0.36,-0.095 -0.458,-0.264 -0.146,-0.253 -0.059,-0.576 0.193,-0.723 l 12.947,-7.476 c 2.023,-1.167 3.669,-4.018 3.669,-6.354 v -3.122 c 0,-2.718 1.844,-5.911 4.198,-7.271 l 2.704,-1.561 c 0.253,-0.147 0.576,-0.059 0.722,0.194 0.146,0.252 0.059,0.575 -0.193,0.722 l -2.704,1.561 c -2.024,1.168 -3.67,4.02 -3.67,6.355 v 3.122 c 0,2.718 -1.844,5.911 -4.198,7.271 l -12.947,7.476 c -0.082,0.048 -0.173,0.07 -0.263,0.07 z"
   id="path122" />
		<path
   style="fill:#42e8e0"
   d="m 219.721,363.123 c -0.183,0 -0.36,-0.095 -0.458,-0.265 -0.146,-0.252 -0.06,-0.575 0.193,-0.722 l 12.948,-7.475 c 2.023,-1.168 3.669,-4.02 3.669,-6.355 v -3.122 c 0,-2.718 1.844,-5.911 4.198,-7.27 l 2.704,-1.562 c 0.252,-0.145 0.576,-0.06 0.722,0.193 0.146,0.253 0.06,0.576 -0.193,0.723 l -2.704,1.561 c -2.023,1.167 -3.669,4.019 -3.669,6.354 v 3.122 c 0,2.718 -1.844,5.911 -4.197,7.271 l -12.948,7.476 c -0.085,0.048 -0.175,0.071 -0.265,0.071 z"
   id="path123" />
		<path
   style="fill:#42e8e0"
   d="m 214.685,360.221 c -0.183,0 -0.36,-0.095 -0.458,-0.264 -0.146,-0.253 -0.06,-0.576 0.193,-0.723 l 12.948,-7.476 c 2.023,-1.167 3.669,-4.019 3.669,-6.355 v -3.123 c 0,-2.718 1.844,-5.911 4.197,-7.271 l 2.704,-1.562 c 0.252,-0.145 0.576,-0.06 0.722,0.193 0.146,0.253 0.059,0.576 -0.193,0.723 l -2.704,1.562 c -2.023,1.167 -3.669,4.018 -3.669,6.354 v 3.123 c 0,2.718 -1.844,5.911 -4.198,7.271 l -12.948,7.476 c -0.083,0.05 -0.174,0.072 -0.263,0.072 z"
   id="path124" />
		<path
   style="fill:#42e8e0"
   d="m 209.649,357.319 c -0.183,0 -0.36,-0.095 -0.458,-0.264 -0.146,-0.253 -0.06,-0.576 0.193,-0.723 l 12.947,-7.475 c 2.023,-1.167 3.67,-4.019 3.67,-6.354 v -3.122 c 0,-2.718 1.844,-5.911 4.198,-7.271 l 2.704,-1.561 c 0.252,-0.147 0.576,-0.059 0.722,0.194 0.146,0.252 0.059,0.575 -0.193,0.722 l -2.704,1.561 c -2.023,1.168 -3.669,4.02 -3.669,6.355 v 3.122 c 0,2.718 -1.844,5.911 -4.198,7.27 l -12.947,7.476 c -0.084,0.048 -0.175,0.07 -0.265,0.07 z"
   id="path125" />
		<path
   style="fill:#42e8e0"
   d="m 204.613,354.417 c -0.183,0 -0.36,-0.095 -0.458,-0.265 -0.146,-0.252 -0.06,-0.575 0.193,-0.722 l 12.947,-7.475 c 2.023,-1.168 3.669,-4.02 3.669,-6.355 v -3.122 c 0,-2.718 1.844,-5.911 4.198,-7.271 l 2.704,-1.561 c 0.251,-0.146 0.576,-0.059 0.722,0.193 0.146,0.253 0.06,0.576 -0.193,0.723 l -2.704,1.562 c -2.023,1.167 -3.669,4.018 -3.669,6.354 v 3.122 c 0,2.718 -1.844,5.911 -4.198,7.271 l -12.947,7.476 c -0.083,0.047 -0.174,0.07 -0.264,0.07 z"
   id="path126" />
		<path
   style="fill:#42e8e0"
   d="m 199.577,351.516 c -0.183,0 -0.36,-0.095 -0.458,-0.264 -0.146,-0.253 -0.06,-0.576 0.193,-0.723 l 12.948,-7.476 c 2.023,-1.167 3.669,-4.019 3.669,-6.354 v -3.123 c 0,-2.718 1.844,-5.911 4.198,-7.27 l 2.704,-1.562 c 0.251,-0.145 0.576,-0.059 0.722,0.193 0.146,0.253 0.06,0.576 -0.193,0.723 l -2.704,1.561 c -2.023,1.167 -3.669,4.019 -3.669,6.354 v 3.123 c 0,2.718 -1.844,5.911 -4.197,7.271 l -12.948,7.476 c -0.085,0.048 -0.175,0.071 -0.265,0.071 z"
   id="path127" />
		<path
   style="fill:#42e8e0"
   d="m 194.54,348.613 c -0.183,0 -0.36,-0.095 -0.458,-0.264 -0.146,-0.253 -0.06,-0.576 0.193,-0.723 l 12.948,-7.476 c 2.023,-1.167 3.669,-4.019 3.669,-6.355 v -3.122 c 0,-2.718 1.844,-5.911 4.197,-7.27 l 2.705,-1.562 c 0.253,-0.146 0.576,-0.059 0.722,0.194 0.146,0.252 0.059,0.575 -0.193,0.722 l -2.704,1.561 c -2.023,1.168 -3.669,4.02 -3.669,6.355 v 3.122 c 0,2.718 -1.844,5.911 -4.198,7.271 l -12.948,7.476 c -0.083,0.049 -0.174,0.071 -0.264,0.071 z"
   id="path128" />
		<path
   style="fill:#42e8e0"
   d="m 189.505,345.711 c -0.183,0 -0.36,-0.095 -0.458,-0.265 -0.146,-0.252 -0.06,-0.575 0.193,-0.722 l 12.947,-7.475 c 2.023,-1.168 3.669,-4.02 3.669,-6.355 v -3.122 c 0,-2.718 1.844,-5.911 4.198,-7.271 l 2.704,-1.561 c 0.251,-0.146 0.576,-0.059 0.722,0.193 0.146,0.253 0.059,0.576 -0.193,0.723 l -2.704,1.561 c -2.023,1.167 -3.669,4.019 -3.669,6.355 v 3.122 c 0,2.718 -1.844,5.911 -4.198,7.27 l -12.947,7.476 c -0.083,0.048 -0.174,0.071 -0.264,0.071 z"
   id="path129" />
		<path
   style="fill:#42e8e0"
   d="m 184.469,342.809 c -0.183,0 -0.36,-0.095 -0.458,-0.264 -0.146,-0.253 -0.059,-0.576 0.193,-0.723 l 12.948,-7.476 c 2.023,-1.167 3.669,-4.019 3.669,-6.354 v -3.123 c 0,-2.718 1.844,-5.911 4.198,-7.271 l 2.704,-1.562 c 0.251,-0.146 0.577,-0.059 0.722,0.193 0.146,0.253 0.06,0.576 -0.193,0.723 l -2.704,1.562 c -2.023,1.167 -3.669,4.018 -3.669,6.354 v 3.123 c 0,2.718 -1.844,5.911 -4.197,7.27 l -12.948,7.476 c -0.085,0.05 -0.175,0.072 -0.265,0.072 z"
   id="path130" />
		<path
   style="fill:#42e8e0"
   d="m 179.433,339.907 c -0.183,0 -0.36,-0.095 -0.458,-0.264 -0.146,-0.253 -0.06,-0.576 0.193,-0.723 l 12.948,-7.475 c 2.023,-1.167 3.67,-4.019 3.67,-6.354 v -3.122 c 0,-2.718 1.844,-5.911 4.197,-7.271 l 2.705,-1.561 c 0.253,-0.146 0.576,-0.059 0.722,0.194 0.146,0.252 0.059,0.575 -0.193,0.722 l -2.705,1.56 c -2.023,1.168 -3.669,4.02 -3.669,6.355 v 3.122 c 0,2.718 -1.844,5.911 -4.198,7.271 l -12.948,7.476 c -0.084,0.048 -0.175,0.07 -0.264,0.07 z"
   id="path131" />
	</g>
</g><g
           style="opacity:0.3"
           id="g134">
	<path
   style="fill:#42e8e0"
   d="m 393.999,153.549 c 0.893,5.05 4.639,17.744 20.095,26.525 22.001,10.16 37.242,23.516 42.348,38.428 0.361,0.978 0.86,2.28 1.328,3.212 0.548,-0.904 0.548,-0.904 0.551,-3.09 v -25.037 c -0.01,-14.701 -0.835,-17.942 -1.879,-22.045 -5.106,-14.912 -20.346,-28.268 -42.348,-38.428 -17.552,-5.666 -21.801,10.79 -20.095,20.435 z"
   id="path132" />
	<path
   style="fill:#42e8e0"
   d="m 232.661,123.508 c 23.294,-6.757 50.85,-10.562 80.262,-10.321 3.881,0.032 7.724,0.133 11.525,0.302 25.826,2.359 35.011,29.633 19.441,41.566 -7.147,5.477 -15.762,5.419 -19.441,5.395 -3.801,-0.169 -7.644,-0.271 -11.525,-0.302 -29.411,-0.241 -56.968,3.563 -80.262,10.321 -23.52,5.729 -24.909,-18.172 -16.684,-32.793 2.766,-4.917 7.907,-11.367 16.684,-14.168 z"
   id="path133" />
	<path
   style="fill:#42e8e0"
   d="m 162.359,229.634 c 0.641,-7.443 1.148,-13.323 8.726,-23.583 15.976,-23.574 12.75,-50.972 3.925,-49.706 -1.422,0.204 -2.901,1.737 -3.925,2.746 -5.363,6.989 -8.411,14.505 -8.703,22.347 -0.015,0.413 -0.023,0.825 -0.023,1.237 z"
   id="path134" />
</g><g
           id="g199">
	
		<rect
   x="357.75"
   y="234.73399"
   transform="matrix(0.927,-0.3752,0.3752,0.927,-70.5185,154.0987)"
   style="fill:#42e8e0"
   width="5.487"
   height="46.839001"
   id="rect134" />
	<g
   id="g178">
		<g
   id="g136">
			<g
   id="g135">
				
					<radialGradient
   id="SVGID_00000118385416692243376070000011904563200620615325_"
   cx="-87.550201"
   cy="-172.8302"
   r="98.408897"
   gradientTransform="matrix(0.981,0.1942,-0.1942,0.981,391.4709,347.2711)"
   gradientUnits="userSpaceOnUse">
					<stop
   offset="0"
   style="stop-color:#C0BFF6"
   id="stop134" />
					<stop
   offset="1"
   style="stop-color:#393091"
   id="stop135" />
				</radialGradient>
				<circle
   style="fill:url(#SVGID_00000118385416692243376070000011904563200620615325_)"
   cx="257.60501"
   cy="215.19"
   r="17.049"
   id="circle135" />
			</g>
		</g>
		<g
   id="g138">
			<g
   id="g137">
				
					<radialGradient
   id="SVGID_00000121239898676940374960000009257451838744391053_"
   cx="912.29211"
   cy="334.7897"
   r="97.2202"
   gradientTransform="matrix(0.7781,0,0,1.0592,-382.2604,-123.1801)"
   gradientUnits="userSpaceOnUse">
					<stop
   offset="0"
   style="stop-color:#C0BFF6"
   id="stop136" />
					<stop
   offset="1"
   style="stop-color:#393091"
   id="stop137" />
				</radialGradient>
				<path
   style="fill:url(#SVGID_00000121239898676940374960000009257451838744391053_)"
   d="m 345.64,240.409 c 0,33.094 -19.707,59.922 -44.018,59.922 -24.311,0 -44.018,-26.828 -44.018,-59.922 0,-33.094 19.707,-43.011 44.018,-43.011 24.311,0 44.018,9.917 44.018,43.011 z"
   id="path137" />
			</g>
		</g>
		<g
   id="g147">
			<g
   id="g146">
				
					<linearGradient
   id="SVGID_00000042738332582644452970000013748243389243443590_"
   gradientUnits="userSpaceOnUse"
   x1="878.91388"
   y1="399.8403"
   x2="878.91388"
   y2="302.6604"
   gradientTransform="matrix(0.7781,0,0,1.0592,-382.2604,-123.1801)">
					<stop
   offset="0"
   style="stop-color:#42E8E0"
   id="stop138" />
					<stop
   offset="0.0047"
   style="stop-color:#42E6DF"
   id="stop139" />
					<stop
   offset="0.1358"
   style="stop-color:#40B6CB"
   id="stop140" />
					<stop
   offset="0.2707"
   style="stop-color:#3E8DB9"
   id="stop141" />
					<stop
   offset="0.4074"
   style="stop-color:#3C6BAA"
   id="stop142" />
					<stop
   offset="0.5467"
   style="stop-color:#3B519F"
   id="stop143" />
					<stop
   offset="0.6893"
   style="stop-color:#3A3F97"
   id="stop144" />
					<stop
   offset="0.8375"
   style="stop-color:#393493"
   id="stop145" />
					<stop
   offset="1"
   style="stop-color:#393091"
   id="stop146" />
				</linearGradient>
				<path
   style="fill:url(#SVGID_00000042738332582644452970000013748243389243443590_)"
   d="m 345.64,240.409 c 0,33.094 -19.707,59.922 -44.018,59.922 -24.311,0 -44.018,-26.828 -44.018,-59.922 0,-33.094 19.707,-43.011 44.018,-43.011 24.311,0 44.018,9.917 44.018,43.011 z"
   id="path146" />
			</g>
		</g>
		<ellipse
   style="fill:#393091"
   cx="301.62201"
   cy="215.19"
   rx="30.041"
   ry="17.344"
   id="ellipse147" />
		<path
   style="fill:#453c9e"
   d="m 280.38,207.546 c 11.732,-6.773 30.753,-6.773 42.485,0 4.846,2.798 7.684,6.314 8.527,9.955 1.198,-5.174 -1.641,-10.599 -8.527,-14.575 -11.732,-6.773 -30.753,-6.774 -42.485,0 -6.886,3.975 -9.724,9.401 -8.527,14.574 0.843,-3.64 3.681,-7.156 8.527,-9.954 z"
   id="path147" />
		
			<radialGradient
   id="SVGID_00000170254658418459663130000012453588827280842392_"
   cx="257.30219"
   cy="104.106"
   r="53.271301"
   gradientUnits="userSpaceOnUse">
			<stop
   offset="0"
   style="stop-color:#C0BFF6"
   id="stop147" />
			<stop
   offset="1"
   style="stop-color:#393091"
   id="stop148" />
		</radialGradient>
		<path
   style="fill:url(#SVGID_00000170254658418459663130000012453588827280842392_)"
   d="m 266.946,173.975 5.435,-9.364 c 3.197,-3.316 5.752,-7.72 7.049,-12.146 l 5.504,-9.483 -7.916,-4.544 c -0.253,-0.172 -0.518,-0.325 -0.794,-0.456 l -0.005,-0.003 v 0 c -2.251,-1.066 -5.242,-0.78 -8.525,1.115 -6.998,4.04 -12.671,13.866 -12.671,21.946 0,4.038 1.417,6.876 3.707,8.2 v 0 l 0.004,0.002 c 0,0 0,0 0,0 z"
   id="path148" />
		
			<ellipse
   transform="matrix(0.5,-0.866,0.866,0.5,0.721,318.0941)"
   style="fill:#bcbeff"
   cx="275.84601"
   cy="158.423"
   rx="17.919001"
   ry="10.346"
   id="ellipse148" />
		<g
   id="g151">
			<g
   id="g150">
				
					<radialGradient
   id="SVGID_00000000922394117475969170000002157087577749440154_"
   cx="331.38541"
   cy="167.1411"
   r="75.878998"
   gradientUnits="userSpaceOnUse">
					<stop
   offset="0"
   style="stop-color:#C0BFF6"
   id="stop149" />
					<stop
   offset="1"
   style="stop-color:#393091"
   id="stop150" />
				</radialGradient>
				<circle
   style="fill:url(#SVGID_00000000922394117475969170000002157087577749440154_)"
   cx="303.36801"
   cy="173.79201"
   r="44.894001"
   id="circle150" />
			</g>
		</g>
		<g
   id="g160">
			<g
   id="g159">
				
					<linearGradient
   id="SVGID_00000058562843687389937580000012665922106791742142_"
   gradientUnits="userSpaceOnUse"
   x1="297.1196"
   y1="218.2545"
   x2="309.61719"
   y2="129.32961">
					<stop
   offset="0"
   style="stop-color:#42E8E0"
   id="stop151" />
					<stop
   offset="0.0047"
   style="stop-color:#42E6DF"
   id="stop152" />
					<stop
   offset="0.1358"
   style="stop-color:#40B6CB"
   id="stop153" />
					<stop
   offset="0.2707"
   style="stop-color:#3E8DB9"
   id="stop154" />
					<stop
   offset="0.4074"
   style="stop-color:#3C6BAA"
   id="stop155" />
					<stop
   offset="0.5467"
   style="stop-color:#3B519F"
   id="stop156" />
					<stop
   offset="0.6893"
   style="stop-color:#3A3F97"
   id="stop157" />
					<stop
   offset="0.8375"
   style="stop-color:#393493"
   id="stop158" />
					<stop
   offset="1"
   style="stop-color:#393091"
   id="stop159" />
				</linearGradient>
				<circle
   style="fill:url(#SVGID_00000058562843687389937580000012665922106791742142_)"
   cx="303.36801"
   cy="173.79201"
   r="44.894001"
   id="circle159" />
			</g>
		</g>
		
			<radialGradient
   id="SVGID_00000008847620325392549790000013413805222640588720_"
   cx="330.77802"
   cy="166.33389"
   r="36.0354"
   gradientUnits="userSpaceOnUse">
			<stop
   offset="0"
   style="stop-color:#C0BFF6"
   id="stop160" />
			<stop
   offset="1"
   style="stop-color:#393091"
   id="stop161" />
		</radialGradient>
		<path
   style="fill:url(#SVGID_00000008847620325392549790000013413805222640588720_)"
   d="m 328.492,204.153 5.435,-9.364 c 3.197,-3.316 5.752,-7.72 7.049,-12.146 l 5.504,-9.483 -7.915,-4.545 c -0.253,-0.172 -0.518,-0.325 -0.794,-0.456 l -0.004,-0.003 v 0 c -2.251,-1.066 -5.242,-0.78 -8.525,1.115 -6.998,4.04 -12.671,13.866 -12.671,21.946 0,4.038 1.417,6.876 3.707,8.2 v 0 l 0.004,0.002 c 0,0 0,0 0,0 z"
   id="path161" />
		
			<ellipse
   transform="matrix(0.5,-0.866,0.866,0.5,5.3574,386.4821)"
   style="fill:#bcbeff"
   cx="337.392"
   cy="188.601"
   rx="17.919001"
   ry="10.346"
   id="ellipse161" />
		<path
   style="fill:#ffffff"
   d="m 325.303,196.021 c 0,-8.08 5.673,-17.906 12.671,-21.946 2.425,-1.4 4.69,-1.92 6.615,-1.668 -2.044,-0.452 -4.523,0.02 -7.197,1.564 -6.998,4.04 -12.671,13.866 -12.671,21.946 0,5.281 2.423,8.507 6.056,8.983 -3.307,-0.732 -5.474,-3.886 -5.474,-8.879 z"
   id="path162" />
		
			<ellipse
   transform="matrix(0.5,-0.866,0.866,0.5,5.3568,386.4812)"
   style="fill:#393091"
   cx="337.392"
   cy="188.601"
   rx="12.808"
   ry="7.395"
   id="ellipse162" />
		<path
   style="fill:#453c9e"
   d="m 342.595,177.04 c 0.937,1.106 1.484,2.76 1.484,4.878 0,5.776 -4.055,12.799 -9.057,15.687 -1.937,1.118 -3.731,1.45 -5.203,1.104 1.619,1.91 4.405,2.18 7.573,0.351 5.002,-2.888 9.057,-9.911 9.057,-15.687 0,-3.54 -1.524,-5.786 -3.854,-6.333 z"
   id="path163" />
		<g
   id="g166">
			
				<ellipse
   transform="matrix(0.9232,-0.3843,0.3843,0.9232,-49.9594,120.5052)"
   style="fill:#393091"
   cx="276.556"
   cy="185.26401"
   rx="11.399"
   ry="19.743"
   id="ellipse163" />
			<path
   style="fill:#42e8e0"
   d="m 283.522,187.412 c -0.417,3.208 -2.838,4.216 -5.409,2.251 -2.57,-1.965 -4.316,-6.16 -3.899,-9.368 0.417,-3.208 2.838,-4.216 5.409,-2.251 2.57,1.965 4.316,6.159 3.899,9.368 z"
   id="path164" />
			<path
   style="fill:#453c9e"
   d="m 277.876,199.963 c -7.072,-5.408 -11.876,-16.948 -10.729,-25.777 0.468,-3.599 1.852,-6.191 3.807,-7.633 -3.697,0.348 -6.497,3.484 -7.203,8.92 -1.147,8.829 3.657,20.369 10.729,25.777 4.189,3.203 8.234,3.535 11.075,1.439 -2.307,0.217 -4.962,-0.648 -7.679,-2.726 z"
   id="path165" />
			<path
   style="fill:#42e8e0"
   d="m 275.089,200.962 c -7.073,-5.408 -11.876,-16.948 -10.729,-25.777 0.531,-4.087 2.245,-6.873 4.634,-8.152 -2.705,1.113 -4.668,4.014 -5.243,8.44 -1.147,8.829 3.657,20.369 10.729,25.777 3.797,2.903 7.473,3.44 10.243,1.957 -2.689,1.106 -6.109,0.451 -9.634,-2.245 z"
   id="path166" />
		</g>
		<g
   id="g168">
			<g
   id="g167">
				
					<radialGradient
   id="SVGID_00000027574521024235366020000013443260233181255339_"
   cx="-52.778198"
   cy="-113.867"
   r="35.5672"
   gradientTransform="matrix(0.981,0.1942,-0.1942,0.981,391.4709,347.2711)"
   gradientUnits="userSpaceOnUse">
					<stop
   offset="0"
   style="stop-color:#C0BFF6"
   id="stop166" />
					<stop
   offset="1"
   style="stop-color:#393091"
   id="stop167" />
				</radialGradient>
				<circle
   style="fill:url(#SVGID_00000027574521024235366020000013443260233181255339_)"
   cx="351.707"
   cy="236.44501"
   r="17.049"
   id="circle167" />
			</g>
		</g>
		<g
   id="g177">
			<g
   id="g176">
				
					<linearGradient
   id="SVGID_00000027570733446828791970000014981600960012373125_"
   gradientUnits="userSpaceOnUse"
   x1="-72.109802"
   y1="-88.482597"
   x2="-48.943298"
   y2="-113.4995"
   gradientTransform="matrix(0.981,0.1942,-0.1942,0.981,391.4709,347.2711)">
					<stop
   offset="0"
   style="stop-color:#42E8E0"
   id="stop168" />
					<stop
   offset="0.0047"
   style="stop-color:#42E6DF"
   id="stop169" />
					<stop
   offset="0.1358"
   style="stop-color:#40B6CB"
   id="stop170" />
					<stop
   offset="0.2707"
   style="stop-color:#3E8DB9"
   id="stop171" />
					<stop
   offset="0.4074"
   style="stop-color:#3C6BAA"
   id="stop172" />
					<stop
   offset="0.5467"
   style="stop-color:#3B519F"
   id="stop173" />
					<stop
   offset="0.6893"
   style="stop-color:#3A3F97"
   id="stop174" />
					<stop
   offset="0.8375"
   style="stop-color:#393493"
   id="stop175" />
					<stop
   offset="1"
   style="stop-color:#393091"
   id="stop176" />
				</linearGradient>
				<circle
   style="fill:url(#SVGID_00000027570733446828791970000014981600960012373125_)"
   cx="351.707"
   cy="236.44501"
   r="17.049"
   id="circle176" />
			</g>
		</g>
	</g>
	
		<radialGradient
   id="SVGID_00000128443512285351122820000013026731956245640585_"
   cx="309.0921"
   cy="-1700.7673"
   r="32.9505"
   fx="309.14182"
   fy="-1698.6234"
   gradientTransform="matrix(0.9112,0.1087,-0.1791,1.501,-202.9199,2798.709)"
   gradientUnits="userSpaceOnUse">
		<stop
   offset="0"
   style="stop-color:#C0BFF6"
   id="stop178" />
		<stop
   offset="1"
   style="stop-color:#393091"
   id="stop179" />
	</radialGradient>
	<path
   style="fill:url(#SVGID_00000128443512285351122820000013026731956245640585_)"
   d="m 378.897,292.931 c -0.967,8.101 -8.121,23.445 -14.597,22.672 -6.475,-0.773 -9.819,-17.369 -8.852,-25.47 0.967,-8.101 7,-14.042 13.475,-13.269 6.475,0.772 10.941,7.965 9.974,16.067 z"
   id="path179" />
	
		<linearGradient
   id="SVGID_00000168098603060104220730000001180541427235731608_"
   gradientUnits="userSpaceOnUse"
   x1="219.00211"
   y1="364.26971"
   x2="244.73669"
   y2="364.26971"
   gradientTransform="matrix(0.9112,0.1087,-0.136,1.1399,204.8732,-144.2021)">
		<stop
   offset="0"
   style="stop-color:#42E8E0"
   id="stop180" />
		<stop
   offset="0.0047"
   style="stop-color:#42E6DF"
   id="stop181" />
		<stop
   offset="0.1358"
   style="stop-color:#40B6CB"
   id="stop182" />
		<stop
   offset="0.2707"
   style="stop-color:#3E8DB9"
   id="stop183" />
		<stop
   offset="0.4074"
   style="stop-color:#3C6BAA"
   id="stop184" />
		<stop
   offset="0.5467"
   style="stop-color:#3B519F"
   id="stop185" />
		<stop
   offset="0.6893"
   style="stop-color:#3A3F97"
   id="stop186" />
		<stop
   offset="0.8375"
   style="stop-color:#393493"
   id="stop187" />
		<stop
   offset="1"
   style="stop-color:#393091"
   id="stop188" />
	</linearGradient>
	<path
   style="fill:url(#SVGID_00000168098603060104220730000001180541427235731608_)"
   d="m 378.897,292.931 c -0.967,8.101 -8.121,23.445 -14.597,22.672 -6.475,-0.773 -9.819,-17.369 -8.852,-25.47 0.967,-8.101 7,-14.042 13.475,-13.269 6.475,0.772 10.941,7.965 9.974,16.067 z"
   id="path188" />
	<path
   style="fill:#42e8e0"
   d="m 212.492,240.809 c -0.988,0 -1.943,-0.536 -2.433,-1.472 -0.703,-1.343 -0.184,-3.001 1.159,-3.703 l 35.201,-18.421 c 1.343,-0.704 3,-0.184 3.703,1.158 0.703,1.343 0.184,3.001 -1.159,3.703 l -35.201,18.421 c -0.407,0.214 -0.841,0.314 -1.27,0.314 z"
   id="path189" />
	
		<radialGradient
   id="SVGID_00000178917797710772896190000016899031323168320423_"
   cx="-2238.8237"
   cy="-2254.4065"
   r="32.9505"
   fx="-2238.7742"
   fy="-2252.2625"
   gradientTransform="matrix(0.4411,0.8047,-1.3256,0.7266,-1766.7273,3670.4304)"
   gradientUnits="userSpaceOnUse">
		<stop
   offset="0"
   style="stop-color:#C0BFF6"
   id="stop189" />
		<stop
   offset="1"
   style="stop-color:#393091"
   id="stop190" />
	</radialGradient>
	<path
   style="fill:url(#SVGID_00000178917797710772896190000016899031323168320423_)"
   d="m 213.112,251.035 c -7.154,3.922 -23.799,7.017 -26.934,1.298 -3.135,-5.718 8.428,-18.085 15.582,-22.007 7.154,-3.922 15.495,-2.465 18.63,3.253 3.135,5.719 -0.124,13.534 -7.278,17.456 z"
   id="path190" />
	
		<linearGradient
   id="SVGID_00000105425273734938811990000001053376994213574816_"
   gradientUnits="userSpaceOnUse"
   x1="-2685.1921"
   y1="-155.6409"
   x2="-2700.6169"
   y2="-135.0406"
   gradientTransform="matrix(0.4411,0.8047,-1.0067,0.5518,1247.8903,2489.1328)">
		<stop
   offset="0"
   style="stop-color:#42E8E0"
   id="stop191" />
		<stop
   offset="0.0047"
   style="stop-color:#42E6DF"
   id="stop192" />
		<stop
   offset="0.1358"
   style="stop-color:#40B6CB"
   id="stop193" />
		<stop
   offset="0.2707"
   style="stop-color:#3E8DB9"
   id="stop194" />
		<stop
   offset="0.4074"
   style="stop-color:#3C6BAA"
   id="stop195" />
		<stop
   offset="0.5467"
   style="stop-color:#3B519F"
   id="stop196" />
		<stop
   offset="0.6893"
   style="stop-color:#3A3F97"
   id="stop197" />
		<stop
   offset="0.8375"
   style="stop-color:#393493"
   id="stop198" />
		<stop
   offset="1"
   style="stop-color:#393091"
   id="stop199" />
	</linearGradient>
	<path
   style="fill:url(#SVGID_00000105425273734938811990000001053376994213574816_)"
   d="m 213.112,251.035 c -7.154,3.922 -23.799,7.017 -26.934,1.298 -3.135,-5.718 8.428,-18.085 15.582,-22.007 7.154,-3.922 15.495,-2.465 18.63,3.253 3.135,5.719 -0.124,13.534 -7.278,17.456 z"
   id="path199" />
</g><g
           style="opacity:0.5"
           id="g203">
	<g
   id="g202">
		<path
   style="fill:#42e8e0"
   d="m 179.562,243.4 c -1.072,8.62 -5.542,13.75 -10.242,7.328 -6.025,-8.234 -6.611,-16.284 -6.961,-21.094 v -46.96 c 0,7.347 2.438,14.435 6.961,21.094 9.933,16.429 11.111,32.642 10.242,39.632 z"
   id="path200" />
		<path
   style="fill:#42e8e0"
   d="m 318.979,252.007 c -3.707,0.1 -7.449,0.136 -11.222,0.105 -29.526,-0.242 -56.88,-4.527 -79.711,-11.713 -22.805,-6.092 -24.183,17.77 -16.224,32.509 5.667,10.495 13.337,13.369 16.224,14.452 22.831,7.185 50.185,11.471 79.711,11.713 3.773,0.031 7.515,-0.005 11.222,-0.105 26.796,-1.975 33.813,-27.71 21.29,-39.722 -3.495,-3.353 -10.026,-7.33 -21.29,-7.239 z"
   id="path201" />
		<path
   style="fill:#42e8e0"
   d="m 458.298,214.565 c -0.13,20.307 -1.322,24.004 -2.831,28.684 -6.276,14.808 -22.554,27.89 -45.34,37.662 -19.948,5.885 -25.457,-14.843 -17.345,-30.211 5.52,-10.456 14.11,-15.028 17.345,-16.749 22.785,-9.772 39.063,-22.854 45.34,-37.662 0.46,-0.983 1.109,-2.286 1.724,-3.18 0.153,-0.02 0.357,-0.047 0.51,-0.067 0.386,1.085 0.546,1.535 0.597,7.078 z"
   id="path202" />
	</g>
</g><polygon
           style="opacity:0.5;fill:url(#SVGID_00000152249358439457069160000012429620555206947241_)"
           points="192.025,300.682 303.532,365.061 415.035,300.684 415.035,83.717 192.025,83.717 "
           id="polygon210" /><path
           style="opacity:0.8;fill:url(#SVGID_00000007405943263108440240000016339382872945624763_)"
           d="m 378.654,229.657 v 0 c -2.173,0 -3.935,-1.762 -3.935,-3.935 V 91.123 c 0,-2.173 1.762,-3.935 3.935,-3.935 v 0 c 2.173,0 3.935,1.762 3.935,3.935 v 134.599 c 0,2.173 -1.762,3.935 -3.935,3.935 z"
           id="path218" /><path
           style="opacity:0.8;fill:url(#SVGID_00000083787211449437175560000016220419545303304095_)"
           d="m 223.432,172.243 v 0 c -1.165,0 -2.109,-0.944 -2.109,-2.109 V 49.845 c 0,-1.165 0.944,-2.109 2.109,-2.109 v 0 c 1.165,0 2.109,0.944 2.109,2.109 v 120.289 c 0.001,1.165 -0.944,2.109 -2.109,2.109 z"
           id="path226" /></g></g></g></svg>
